solid Printtable-S-Series
facet normal 0.9807852804032304 -0.19509032201612814 0.0
  outer loop
    vertex 34.85028507404168 12.71579163614908 0.0
    vertex 34.40370196005869 10.470666710705872 15.0
    vertex 34.40370196005869 10.470666710705872 0.0
  endloop
endfacet
facet normal 0.9807852804032304 -0.19509032201612814 0.0
  outer loop
    vertex 34.40370196005869 10.470666710705872 15.0
    vertex 34.85028507404168 12.71579163614908 0.0
    vertex 34.85028507404168 12.71579163614908 15.0
  endloop
endfacet
facet normal 0.8314696123025455 -0.555570233019602 0.0
  outer loop
    vertex 32.655444566227665 6.249999999999991 0.0
    vertex 31.383683455096612 4.346674992347385 15.0
    vertex 31.383683455096612 4.346674992347385 0.0
  endloop
endfacet
facet normal 0.8314696123025455 -0.555570233019602 0.0
  outer loop
    vertex 31.383683455096612 4.346674992347385 15.0
    vertex 32.655444566227665 6.249999999999991 0.0
    vertex 32.655444566227665 6.249999999999991 15.0
  endloop
endfacet
facet normal -0.6593458151000687 -0.7518398074789777 -0.0
  outer loop
    vertex 6.84667499234738 1.116316544903389 114.99999999999999
    vertex 5.125631329235406 2.625631329235425 0.0
    vertex 6.84667499234738 1.116316544903389 0.0
  endloop
endfacet
facet normal -0.6593458151000687 -0.7518398074789777 -0.0
  outer loop
    vertex 5.125631329235406 2.625631329235425 0.0
    vertex 6.84667499234738 1.116316544903389 114.99999999999999
    vertex 5.125631329235406 2.625631329235425 114.99999999999999
  endloop
endfacet
facet normal 0.9978589232386035 0.06540312923014495 0.0
  outer loop
    vertex 34.85028507404168 47.7842083638509 0.0
    vertex 35.0 45.49999999999999 15.0
    vertex 35.0 45.49999999999999 0.0
  endloop
endfacet
facet normal 0.9978589232386035 0.06540312923014495 0.0
  outer loop
    vertex 35.0 45.49999999999999 15.0
    vertex 34.85028507404168 47.7842083638509 0.0
    vertex 34.85028507404168 47.7842083638509 15.0
  endloop
endfacet
facet normal -0.32143946530316087 0.946930129495106 0.0
  outer loop
    vertex 10.803039933610929 61.66789181894752 15.0
    vertex 12.970666710705885 62.4037019600587 0.0
    vertex 10.803039933610929 61.66789181894752 0.0
  endloop
endfacet
facet normal -0.32143946530316087 0.946930129495106 0.0
  outer loop
    vertex 12.970666710705885 62.4037019600587 0.0
    vertex 10.803039933610929 61.66789181894752 15.0
    vertex 12.970666710705885 62.4037019600587 15.0
  endloop
endfacet
facet normal -0.19509032201612767 0.9807852804032305 0.0
  outer loop
    vertex 12.970666710705885 62.4037019600587 15.0
    vertex 15.215791636149097 62.85028507404168 0.0
    vertex 12.970666710705885 62.4037019600587 0.0
  endloop
endfacet
facet normal -0.19509032201612767 0.9807852804032305 0.0
  outer loop
    vertex 15.215791636149097 62.85028507404168 0.0
    vertex 12.970666710705885 62.4037019600587 15.0
    vertex 15.215791636149097 62.85028507404168 15.0
  endloop
endfacet
facet normal 0.5555702330196025 -0.8314696123025451 0.0
  outer loop
    vertex 28.153325007652587 1.116316544903375 15.0
    vertex 26.249999999999986 -0.15544456622768477 0.0
    vertex 28.153325007652587 1.116316544903375 0.0
  endloop
endfacet
facet normal 0.5555702330196025 -0.8314696123025451 0.0
  outer loop
    vertex 26.249999999999986 -0.15544456622768477 0.0
    vertex 28.153325007652587 1.116316544903375 15.0
    vertex 26.249999999999986 -0.15544456622768477 15.0
  endloop
endfacet
facet normal 0.8968727415326873 -0.4422886902190036 0.0
  outer loop
    vertex 33.66789181894752 8.303039933610918 0.0
    vertex 32.655444566227665 6.249999999999991 15.0
    vertex 32.655444566227665 6.249999999999991 0.0
  endloop
endfacet
facet normal 0.8968727415326873 -0.4422886902190036 0.0
  outer loop
    vertex 32.655444566227665 6.249999999999991 15.0
    vertex 33.66789181894752 8.303039933610918 0.0
    vertex 33.66789181894752 8.303039933610918 15.0
  endloop
endfacet
facet normal 0.9469301294951058 -0.32143946530316125 0.0
  outer loop
    vertex 34.40370196005869 10.470666710705872 0.0
    vertex 33.66789181894752 8.303039933610918 15.0
    vertex 33.66789181894752 8.303039933610918 0.0
  endloop
endfacet
facet normal 0.9469301294951058 -0.32143946530316125 0.0
  outer loop
    vertex 33.66789181894752 8.303039933610918 15.0
    vertex 34.40370196005869 10.470666710705872 0.0
    vertex 34.40370196005869 10.470666710705872 15.0
  endloop
endfacet
facet normal 0.7518398074789768 -0.6593458151000695 0.0
  outer loop
    vertex 31.383683455096612 4.346674992347385 0.0
    vertex 29.874368670764568 2.6256313292354148 15.0
    vertex 29.874368670764568 2.6256313292354148 0.0
  endloop
endfacet
facet normal 0.7518398074789768 -0.6593458151000695 0.0
  outer loop
    vertex 29.874368670764568 2.6256313292354148 15.0
    vertex 31.383683455096612 4.346674992347385 0.0
    vertex 31.383683455096612 4.346674992347385 15.0
  endloop
endfacet
facet normal -0.8314696123025452 -0.5555702330196022 -0.0
  outer loop
    vertex 2.3445554337723165 6.250000000000004 114.99999999999999
    vertex 3.616316544903376 4.346674992347395 0.0
    vertex 3.616316544903376 4.346674992347395 114.99999999999999
  endloop
endfacet
facet normal -0.8314696123025452 -0.5555702330196022 -0.0
  outer loop
    vertex 3.616316544903376 4.346674992347395 0.0
    vertex 2.3445554337723165 6.250000000000004 114.99999999999999
    vertex 2.3445554337723165 6.250000000000004 0.0
  endloop
endfacet
facet normal -0.8968727415326884 -0.44228869021900136 -0.0
  outer loop
    vertex 1.3321081810524715 8.303039933610938 114.99999999999999
    vertex 2.3445554337723165 6.250000000000004 0.0
    vertex 2.3445554337723165 6.250000000000004 114.99999999999999
  endloop
endfacet
facet normal -0.8968727415326884 -0.44228869021900136 -0.0
  outer loop
    vertex 2.3445554337723165 6.250000000000004 0.0
    vertex 1.3321081810524715 8.303039933610938 114.99999999999999
    vertex 1.3321081810524715 8.303039933610938 0.0
  endloop
endfacet
facet normal -0.9807852804032304 -0.19509032201612814 -0.0
  outer loop
    vertex 0.14971492595831093 12.715791636149103 114.99999999999999
    vertex 0.5962980399412972 10.470666710705894 0.0
    vertex 0.5962980399412972 10.470666710705894 114.99999999999999
  endloop
endfacet
facet normal -0.9807852804032304 -0.19509032201612814 -0.0
  outer loop
    vertex 0.5962980399412972 10.470666710705894 0.0
    vertex 0.14971492595831093 12.715791636149103 114.99999999999999
    vertex 0.14971492595831093 12.715791636149103 0.0
  endloop
endfacet
facet normal 0.9978589232386035 -0.06540312923014446 0.0
  outer loop
    vertex 34.99999999999999 15.0 0.0
    vertex 34.85028507404168 12.71579163614908 15.0
    vertex 34.85028507404168 12.71579163614908 0.0
  endloop
endfacet
facet normal 0.9978589232386035 -0.06540312923014446 0.0
  outer loop
    vertex 34.85028507404168 12.71579163614908 15.0
    vertex 34.99999999999999 15.0 0.0
    vertex 34.99999999999999 15.0 15.0
  endloop
endfacet
facet normal -0.5555702330196036 -0.8314696123025442 -0.0
  outer loop
    vertex 8.749999999999988 -0.15544456622767347 114.99999999999999
    vertex 6.84667499234738 1.116316544903389 0.0
    vertex 8.749999999999988 -0.15544456622767347 0.0
  endloop
endfacet
facet normal -0.5555702330196036 -0.8314696123025442 -0.0
  outer loop
    vertex 6.84667499234738 1.116316544903389 0.0
    vertex 8.749999999999988 -0.15544456622767347 114.99999999999999
    vertex 6.84667499234738 1.116316544903389 114.99999999999999
  endloop
endfacet
facet normal -0.946930129495106 -0.32143946530316087 -0.0
  outer loop
    vertex 0.5962980399412972 10.470666710705894 114.99999999999999
    vertex 1.3321081810524715 8.303039933610938 0.0
    vertex 1.3321081810524715 8.303039933610938 114.99999999999999
  endloop
endfacet
facet normal -0.946930129495106 -0.32143946530316087 -0.0
  outer loop
    vertex 1.3321081810524715 8.303039933610938 0.0
    vertex 0.5962980399412972 10.470666710705894 114.99999999999999
    vertex 0.5962980399412972 10.470666710705894 0.0
  endloop
endfacet
facet normal 0.6593458151000681 -0.751839807478978 0.0
  outer loop
    vertex 29.874368670764568 2.6256313292354148 15.0
    vertex 28.153325007652587 1.116316544903375 0.0
    vertex 29.874368670764568 2.6256313292354148 0.0
  endloop
endfacet
facet normal 0.6593458151000681 -0.751839807478978 0.0
  outer loop
    vertex 28.153325007652587 1.116316544903375 0.0
    vertex 29.874368670764568 2.6256313292354148 15.0
    vertex 28.153325007652587 1.116316544903375 15.0
  endloop
endfacet
facet normal -0.9978589232386036 -0.06540312923014258 -0.0
  outer loop
    vertex -5.6399329650958186e-15 15.000000000000004 114.99999999999999
    vertex 0.14971492595831093 12.715791636149103 0.0
    vertex 0.14971492595831093 12.715791636149103 114.99999999999999
  endloop
endfacet
facet normal -0.9978589232386036 -0.06540312923014258 -0.0
  outer loop
    vertex 0.14971492595831093 12.715791636149103 0.0
    vertex -5.6399329650958186e-15 15.000000000000004 114.99999999999999
    vertex -5.639932965095795e-15 15.000000000000004 0.0
  endloop
endfacet
facet normal 1.0 -8.169293262794935e-16 2.835205225608834e-33
  outer loop
    vertex 35.0 45.49999999999999 0.0
    vertex 34.99999999999999 25.692360137733083 15.0
    vertex 34.99999999999999 25.692360137733083 1.4099832412739487e-15
  endloop
endfacet
facet normal 1.0 -8.169293262794935e-16 2.835205225608834e-33
  outer loop
    vertex 34.99999999999999 25.692360137733083 15.0
    vertex 35.0 45.49999999999999 0.0
    vertex 35.0 45.49999999999999 15.0
  endloop
endfacet
facet normal -0.751839807478978 -0.6593458151000682 -0.0
  outer loop
    vertex 3.616316544903376 4.346674992347395 114.99999999999999
    vertex 5.125631329235406 2.625631329235425 0.0
    vertex 5.125631329235406 2.625631329235425 114.99999999999999
  endloop
endfacet
facet normal -0.751839807478978 -0.6593458151000682 -0.0
  outer loop
    vertex 5.125631329235406 2.625631329235425 0.0
    vertex 3.616316544903376 4.346674992347395 114.99999999999999
    vertex 3.616316544903376 4.346674992347395 0.0
  endloop
endfacet
facet normal -0.06540312923014266 0.9978589232386036 0.0
  outer loop
    vertex 15.215791636149097 62.85028507404168 15.0
    vertex 17.499999999999996 63.0 0.0
    vertex 15.215791636149097 62.85028507404168 0.0
  endloop
endfacet
facet normal -0.06540312923014266 0.9978589232386036 0.0
  outer loop
    vertex 17.499999999999996 63.0 0.0
    vertex 15.215791636149097 62.85028507404168 15.0
    vertex 17.499999999999996 63.0 15.0
  endloop
endfacet
facet normal 0.06540312923014249 0.9978589232386036 0.0
  outer loop
    vertex 17.499999999999996 63.0 15.0
    vertex 19.7842083638509 62.85028507404168 0.0
    vertex 17.499999999999996 63.0 0.0
  endloop
endfacet
facet normal 0.06540312923014249 0.9978589232386036 0.0
  outer loop
    vertex 19.7842083638509 62.85028507404168 0.0
    vertex 17.499999999999996 63.0 15.0
    vertex 19.7842083638509 62.85028507404168 15.0
  endloop
endfacet
facet normal 0.555570233019604 0.8314696123025441 0.0
  outer loop
    vertex 26.249999999999996 60.655444566227686 15.0
    vertex 28.15332500765261 59.383683455096616 0.0
    vertex 26.249999999999996 60.655444566227686 0.0
  endloop
endfacet
facet normal 0.555570233019604 0.8314696123025441 0.0
  outer loop
    vertex 28.15332500765261 59.383683455096616 0.0
    vertex 26.249999999999996 60.655444566227686 15.0
    vertex 28.15332500765261 59.383683455096616 15.0
  endloop
endfacet
facet normal 0.9469301294951055 0.3214394653031623 0.0
  outer loop
    vertex 33.66789181894752 52.196960066389074 0.0
    vertex 34.40370196005869 50.029333289294115 15.0
    vertex 34.40370196005869 50.029333289294115 0.0
  endloop
endfacet
facet normal 0.9469301294951055 0.3214394653031623 0.0
  outer loop
    vertex 34.40370196005869 50.029333289294115 15.0
    vertex 33.66789181894752 52.196960066389074 0.0
    vertex 33.66789181894752 52.196960066389074 15.0
  endloop
endfacet
facet normal -0.19509032201612705 -0.9807852804032307 -0.0
  outer loop
    vertex 21.640271710936176 60.95170438235387 15.0
    vertex 19.587998976160524 61.35992681053681 0.0
    vertex 21.640271710936176 60.95170438235387 0.0
  endloop
endfacet
facet normal -0.19509032201612705 -0.9807852804032307 -0.0
  outer loop
    vertex 19.587998976160524 61.35992681053681 0.0
    vertex 21.640271710936176 60.95170438235387 15.0
    vertex 19.587998976160524 61.35992681053681 15.0
  endloop
endfacet
facet normal -0.06540312923014074 -0.9978589232386037 -0.0
  outer loop
    vertex 19.587998976160524 61.35992681053681 15.0
    vertex 17.499999999999986 61.49678149378904 0.0
    vertex 19.587998976160524 61.35992681053681 0.0
  endloop
endfacet
facet normal -0.06540312923014074 -0.9978589232386037 -0.0
  outer loop
    vertex 17.499999999999986 61.49678149378904 0.0
    vertex 19.587998976160524 61.35992681053681 15.0
    vertex 17.499999999999986 61.49678149378904 15.0
  endloop
endfacet
facet normal -0.44228869021899664 -0.8968727415326906 -0.0
  outer loop
    vertex 25.498390746894557 59.35361915241009 15.0
    vertex 23.621703248837534 60.27909900816703 0.0
    vertex 25.498390746894557 59.35361915241009 0.0
  endloop
endfacet
facet normal -0.44228869021899664 -0.8968727415326906 -0.0
  outer loop
    vertex 23.621703248837534 60.27909900816703 0.0
    vertex 25.498390746894557 59.35361915241009 15.0
    vertex 23.621703248837534 60.27909900816703 15.0
  endloop
endfacet
facet normal 0.19509032201612767 0.9807852804032305 0.0
  outer loop
    vertex 19.7842083638509 62.85028507404168 15.0
    vertex 22.029333289294115 62.4037019600587 0.0
    vertex 19.7842083638509 62.85028507404168 0.0
  endloop
endfacet
facet normal 0.19509032201612767 0.9807852804032305 0.0
  outer loop
    vertex 22.029333289294115 62.4037019600587 0.0
    vertex 19.7842083638509 62.85028507404168 15.0
    vertex 22.029333289294115 62.4037019600587 15.0
  endloop
endfacet
facet normal 0.4422886902189996 0.8968727415326891 0.0
  outer loop
    vertex 24.19696006638907 61.66789181894752 15.0
    vertex 26.249999999999996 60.655444566227686 0.0
    vertex 24.19696006638907 61.66789181894752 0.0
  endloop
endfacet
facet normal 0.4422886902189996 0.8968727415326891 0.0
  outer loop
    vertex 26.249999999999996 60.655444566227686 0.0
    vertex 24.19696006638907 61.66789181894752 15.0
    vertex 26.249999999999996 60.655444566227686 15.0
  endloop
endfacet
facet normal 0.8314696123025453 0.5555702330196023 0.0
  outer loop
    vertex 31.383683455096612 56.15332500765262 0.0
    vertex 32.65544456622768 54.25 15.0
    vertex 32.65544456622768 54.25 0.0
  endloop
endfacet
facet normal 0.8314696123025453 0.5555702330196023 0.0
  outer loop
    vertex 32.65544456622768 54.25 15.0
    vertex 31.383683455096612 56.15332500765262 0.0
    vertex 31.383683455096612 56.15332500765262 15.0
  endloop
endfacet
facet normal 0.32143946530316087 0.946930129495106 0.0
  outer loop
    vertex 22.029333289294115 62.4037019600587 15.0
    vertex 24.19696006638907 61.66789181894752 0.0
    vertex 22.029333289294115 62.4037019600587 0.0
  endloop
endfacet
facet normal 0.32143946530316087 0.946930129495106 0.0
  outer loop
    vertex 24.19696006638907 61.66789181894752 0.0
    vertex 22.029333289294115 62.4037019600587 15.0
    vertex 24.19696006638907 61.66789181894752 15.0
  endloop
endfacet
facet normal 0.6593458151000682 0.751839807478978 0.0
  outer loop
    vertex 28.15332500765261 59.383683455096616 15.0
    vertex 29.874368670764582 57.87436867076458 0.0
    vertex 28.15332500765261 59.383683455096616 0.0
  endloop
endfacet
facet normal 0.6593458151000682 0.751839807478978 0.0
  outer loop
    vertex 29.874368670764582 57.87436867076458 0.0
    vertex 28.15332500765261 59.383683455096616 15.0
    vertex 29.874368670764582 57.87436867076458 15.0
  endloop
endfacet
facet normal 0.8968727415326894 0.4422886902189991 0.0
  outer loop
    vertex 32.65544456622768 54.25 0.0
    vertex 33.66789181894752 52.196960066389074 15.0
    vertex 33.66789181894752 52.196960066389074 0.0
  endloop
endfacet
facet normal 0.8968727415326894 0.4422886902189991 0.0
  outer loop
    vertex 33.66789181894752 52.196960066389074 15.0
    vertex 32.65544456622768 54.25 0.0
    vertex 32.65544456622768 54.25 15.0
  endloop
endfacet
facet normal 0.7518398074789768 0.6593458151000695 0.0
  outer loop
    vertex 29.874368670764582 57.87436867076458 0.0
    vertex 31.383683455096612 56.15332500765262 15.0
    vertex 31.383683455096612 56.15332500765262 0.0
  endloop
endfacet
facet normal 0.7518398074789768 0.6593458151000695 0.0
  outer loop
    vertex 31.383683455096612 56.15332500765262 15.0
    vertex 29.874368670764582 57.87436867076458 0.0
    vertex 29.874368670764582 57.87436867076458 15.0
  endloop
endfacet
facet normal 0.9807852804032307 0.19509032201612794 0.0
  outer loop
    vertex 34.40370196005869 50.029333289294115 0.0
    vertex 34.85028507404168 47.7842083638509 15.0
    vertex 34.85028507404168 47.7842083638509 0.0
  endloop
endfacet
facet normal 0.9807852804032307 0.19509032201612794 0.0
  outer loop
    vertex 34.85028507404168 47.7842083638509 15.0
    vertex 34.40370196005869 50.029333289294115 0.0
    vertex 34.40370196005869 50.029333289294115 15.0
  endloop
endfacet
facet normal -0.3214394653031659 -0.9469301294951042 -0.0
  outer loop
    vertex 23.621703248837534 60.27909900816703 15.0
    vertex 21.640271710936176 60.95170438235387 0.0
    vertex 23.621703248837534 60.27909900816703 0.0
  endloop
endfacet
facet normal -0.3214394653031659 -0.9469301294951042 -0.0
  outer loop
    vertex 21.640271710936176 60.95170438235387 0.0
    vertex 23.621703248837534 60.27909900816703 15.0
    vertex 21.640271710936176 60.95170438235387 15.0
  endloop
endfacet
facet normal 0.19509032201612805 -0.9807852804032304 0.0
  outer loop
    vertex 15.412001023839474 61.35992681053681 15.0
    vertex 13.359728289063892 60.951704382353874 0.0
    vertex 15.412001023839474 61.35992681053681 0.0
  endloop
endfacet
facet normal 0.19509032201612805 -0.9807852804032304 0.0
  outer loop
    vertex 13.359728289063892 60.951704382353874 0.0
    vertex 15.412001023839474 61.35992681053681 15.0
    vertex 13.359728289063892 60.951704382353874 15.0
  endloop
endfacet
facet normal -0.9978589232386036 0.06540312923014194 0.0
  outer loop
    vertex 33.49999999999999 15.049104915619518 15.0
    vertex 33.359926810536805 12.912001023839482 0.0
    vertex 33.359926810536805 12.912001023839482 15.0
  endloop
endfacet
facet normal -0.9978589232386036 0.06540312923014194 0.0
  outer loop
    vertex 33.359926810536805 12.912001023839482 0.0
    vertex 33.49999999999999 15.049104915619518 15.0
    vertex 33.49999999999999 15.049104915619518 0.0
  endloop
endfacet
facet normal 0.9978589232386034 -0.06540312923014446 0.0
  outer loop
    vertex 1.640073189463173 47.58799897616049 0.0
    vertex 1.4999999999999916 45.45089508438057 114.99999999999999
    vertex 1.4999999999999916 45.45089508438057 0.0
  endloop
endfacet
facet normal 0.9978589232386034 -0.06540312923014446 0.0
  outer loop
    vertex 1.4999999999999916 45.45089508438057 114.99999999999999
    vertex 1.640073189463173 47.58799897616049 0.0
    vertex 1.640073189463173 47.58799897616049 114.99999999999999
  endloop
endfacet
facet normal 0.8968727415326875 0.44228869021900297 0.0
  outer loop
    vertex 2.7209009918329525 8.87829675116248 0.0
    vertex 3.646380847589911 7.001609253105454 114.99999999999999
    vertex 3.646380847589911 7.001609253105454 0.0
  endloop
endfacet
facet normal 0.8968727415326875 0.44228869021900297 0.0
  outer loop
    vertex 3.646380847589911 7.001609253105454 114.99999999999999
    vertex 2.7209009918329525 8.87829675116248 0.0
    vertex 2.7209009918329525 8.87829675116248 114.99999999999999
  endloop
endfacet
facet normal 0.06540312923014162 -0.9978589232386036 0.0
  outer loop
    vertex 17.499999999999986 61.49678149378904 15.0
    vertex 15.412001023839474 61.35992681053681 0.0
    vertex 17.499999999999986 61.49678149378904 0.0
  endloop
endfacet
facet normal 0.06540312923014162 -0.9978589232386036 0.0
  outer loop
    vertex 15.412001023839474 61.35992681053681 0.0
    vertex 17.499999999999986 61.49678149378904 15.0
    vertex 15.412001023839474 61.35992681053681 15.0
  endloop
endfacet
facet normal 0.9978589232386037 0.06540312923014038 0.0
  outer loop
    vertex 1.5000000000000198 15.049104915619077 0.0
    vertex 1.6400731894631653 12.912001023839567 114.99999999999999
    vertex 1.6400731894631653 12.912001023839567 0.0
  endloop
endfacet
facet normal 0.9978589232386037 0.06540312923014038 0.0
  outer loop
    vertex 1.6400731894631653 12.912001023839567 114.99999999999999
    vertex 1.5000000000000198 15.049104915619077 0.0
    vertex 1.5000000000000198 15.049104915619077 114.99999999999999
  endloop
endfacet
facet normal 7.224163040503548e-16 1.0 0.0
  outer loop
    vertex 9.205020025411002 1.3445554337723262 15.0
    vertex 25.794979974588973 1.3445554337723142 0.0
    vertex 9.205020025411002 1.3445554337723262 0.0
  endloop
endfacet
facet normal 7.224163040503548e-16 1.0 0.0
  outer loop
    vertex 25.794979974588973 1.3445554337723142 0.0
    vertex 9.205020025411002 1.3445554337723262 15.0
    vertex 25.794979974588973 1.3445554337723142 15.0
  endloop
endfacet
facet normal 0.8314696123025467 -0.5555702330196001 0.0
  outer loop
    vertex 4.808899967993457 55.238223561699314 0.0
    vertex 3.6463808475899007 53.49839074689453 114.99999999999999
    vertex 3.6463808475899007 53.49839074689453 0.0
  endloop
endfacet
facet normal 0.8314696123025467 -0.5555702330196001 0.0
  outer loop
    vertex 3.6463808475899007 53.49839074689453 114.99999999999999
    vertex 4.808899967993457 55.238223561699314 0.0
    vertex 4.808899967993457 55.238223561699314 114.99999999999999
  endloop
endfacet
facet normal 0.7518398074789757 0.6593458151000707 0.0
  outer loop
    vertex 4.808899967993441 5.261776438300717 0.0
    vertex 6.1885673285823195 3.6885673285822667 114.99999999999999
    vertex 6.1885673285823195 3.6885673285822667 0.0
  endloop
endfacet
facet normal 0.7518398074789757 0.6593458151000707 0.0
  outer loop
    vertex 6.1885673285823195 3.6885673285822667 114.99999999999999
    vertex 4.808899967993441 5.261776438300717 0.0
    vertex 4.808899967993441 5.261776438300717 114.99999999999999
  endloop
endfacet
facet normal 0.32143946530315637 -0.9469301294951075 0.0
  outer loop
    vertex 13.359728289063892 60.951704382353874 15.0
    vertex 11.3782967511625 60.27909900816705 0.0
    vertex 13.359728289063892 60.951704382353874 0.0
  endloop
endfacet
facet normal 0.32143946530315637 -0.9469301294951075 0.0
  outer loop
    vertex 11.3782967511625 60.27909900816705 0.0
    vertex 13.359728289063892 60.951704382353874 15.0
    vertex 11.3782967511625 60.27909900816705 15.0
  endloop
endfacet
facet normal 0.7518398074789753 -0.6593458151000715 0.0
  outer loop
    vertex 6.18856732858228 56.811432671417705 0.0
    vertex 4.808899967993457 55.238223561699314 114.99999999999999
    vertex 4.808899967993457 55.238223561699314 0.0
  endloop
endfacet
facet normal 0.7518398074789753 -0.6593458151000715 0.0
  outer loop
    vertex 4.808899967993457 55.238223561699314 114.99999999999999
    vertex 6.18856732858228 56.811432671417705 0.0
    vertex 6.18856732858228 56.811432671417705 114.99999999999999
  endloop
endfacet
facet normal 0.9469301294951056 -0.3214394653031621 0.0
  outer loop
    vertex 2.7209009918329383 51.62170324883748 0.0
    vertex 2.0482956176461307 49.640271710936176 114.99999999999999
    vertex 2.0482956176461307 49.640271710936176 0.0
  endloop
endfacet
facet normal 0.9469301294951056 -0.3214394653031621 0.0
  outer loop
    vertex 2.0482956176461307 49.640271710936176 114.99999999999999
    vertex 2.7209009918329383 51.62170324883748 0.0
    vertex 2.7209009918329383 51.62170324883748 114.99999999999999
  endloop
endfacet
facet normal 0.555570233019604 0.831469612302544 0.0
  outer loop
    vertex 7.7617764383007595 2.3088999679934155 114.99999999999999
    vertex 9.205020025411002 1.3445554337723262 0.0
    vertex 7.7617764383007595 2.3088999679934155 0.0
  endloop
endfacet
facet normal 0.555570233019604 0.831469612302544 0.0
  outer loop
    vertex 9.205020025411002 1.3445554337723262 0.0
    vertex 7.7617764383007595 2.3088999679934155 114.99999999999999
    vertex 9.205020025411002 1.3445554337723262 15.0
  endloop
endfacet
facet normal 0.555570233019604 0.831469612302544 0.0
  outer loop
    vertex 9.205020025411002 1.3445554337723262 15.0
    vertex 7.7617764383007595 2.3088999679934155 114.99999999999999
    vertex 9.205020025411002 1.3445554337723262 114.99999999999999
  endloop
endfacet
facet normal 0.5555702330196013 -0.8314696123025458 8.027122213859656e-18
  outer loop
    vertex 9.501609253105483 59.35361915241011 15.0
    vertex 7.761776438300734 58.191100032006574 0.0
    vertex 9.501609253105483 59.35361915241011 0.0
  endloop
endfacet
facet normal 0.5555702330196013 -0.8314696123025458 8.027122213859656e-18
  outer loop
    vertex 7.761776438300734 58.191100032006574 0.0
    vertex 9.501609253105483 59.35361915241011 15.0
    vertex 9.205020025411002 59.15544456622767 15.0
  endloop
endfacet
facet normal 0.5555702330196013 -0.8314696123025458 8.027122213859656e-18
  outer loop
    vertex 7.761776438300734 58.191100032006574 0.0
    vertex 9.205020025411002 59.15544456622767 15.0
    vertex 7.761776438300734 58.191100032006574 114.99999999999999
  endloop
endfacet
facet normal 0.5555702330196013 -0.8314696123025458 8.027122213859656e-18
  outer loop
    vertex 7.761776438300734 58.191100032006574 114.99999999999999
    vertex 9.205020025411002 59.15544456622767 15.0
    vertex 9.205020025411002 59.15544456622767 114.99999999999999
  endloop
endfacet
facet normal -0.659345815100068 0.7518398074789784 0.0
  outer loop
    vertex 27.238223561699257 2.3088999679934266 15.0
    vertex 28.811432671417688 3.6885673285822813 0.0
    vertex 27.238223561699257 2.3088999679934266 0.0
  endloop
endfacet
facet normal -0.659345815100068 0.7518398074789784 0.0
  outer loop
    vertex 28.811432671417688 3.6885673285822813 0.0
    vertex 27.238223561699257 2.3088999679934266 15.0
    vertex 28.811432671417688 3.6885673285822813 15.0
  endloop
endfacet
facet normal -0.8314696123025476 0.5555702330195987 0.0
  outer loop
    vertex 31.353619152410094 7.0016092531054825 15.0
    vertex 30.19110003200656 5.261776438300721 0.0
    vertex 30.19110003200656 5.261776438300721 15.0
  endloop
endfacet
facet normal -0.8314696123025476 0.5555702330195987 0.0
  outer loop
    vertex 30.19110003200656 5.261776438300721 0.0
    vertex 31.353619152410094 7.0016092531054825 15.0
    vertex 31.353619152410094 7.0016092531054825 0.0
  endloop
endfacet
facet normal 0.9807852804032303 -0.1950903220161288 0.0
  outer loop
    vertex 2.0482956176461307 49.640271710936176 0.0
    vertex 1.640073189463173 47.58799897616049 114.99999999999999
    vertex 1.640073189463173 47.58799897616049 0.0
  endloop
endfacet
facet normal 0.9807852804032303 -0.1950903220161288 0.0
  outer loop
    vertex 1.640073189463173 47.58799897616049 114.99999999999999
    vertex 2.0482956176461307 49.640271710936176 0.0
    vertex 2.0482956176461307 49.640271710936176 114.99999999999999
  endloop
endfacet
facet normal -0.5555702330196024 0.8314696123025452 0.0
  outer loop
    vertex 25.794979974588973 1.3445554337723142 15.0
    vertex 27.238223561699257 2.3088999679934266 0.0
    vertex 25.794979974588973 1.3445554337723142 0.0
  endloop
endfacet
facet normal -0.5555702330196024 0.8314696123025452 0.0
  outer loop
    vertex 27.238223561699257 2.3088999679934266 0.0
    vertex 25.794979974588973 1.3445554337723142 15.0
    vertex 27.238223561699257 2.3088999679934266 15.0
  endloop
endfacet
facet normal 0.8968727415326893 -0.44228869021899975 0.0
  outer loop
    vertex 3.6463808475899007 53.49839074689453 0.0
    vertex 2.7209009918329383 51.62170324883748 114.99999999999999
    vertex 2.7209009918329383 51.62170324883748 0.0
  endloop
endfacet
facet normal 0.8968727415326893 -0.44228869021899975 0.0
  outer loop
    vertex 2.7209009918329383 51.62170324883748 114.99999999999999
    vertex 3.6463808475899007 53.49839074689453 0.0
    vertex 3.6463808475899007 53.49839074689453 114.99999999999999
  endloop
endfacet
facet normal 0.44228869021899825 -0.8968727415326899 0.0
  outer loop
    vertex 11.3782967511625 60.27909900816705 15.0
    vertex 9.501609253105483 59.35361915241011 0.0
    vertex 11.3782967511625 60.27909900816705 0.0
  endloop
endfacet
facet normal 0.44228869021899825 -0.8968727415326899 0.0
  outer loop
    vertex 9.501609253105483 59.35361915241011 0.0
    vertex 11.3782967511625 60.27909900816705 15.0
    vertex 9.501609253105483 59.35361915241011 15.0
  endloop
endfacet
facet normal 0.6593458151000688 -0.7518398074789776 0.0
  outer loop
    vertex 7.761776438300734 58.191100032006574 114.99999999999999
    vertex 6.18856732858228 56.811432671417705 0.0
    vertex 7.761776438300734 58.191100032006574 0.0
  endloop
endfacet
facet normal 0.6593458151000688 -0.7518398074789776 0.0
  outer loop
    vertex 6.18856732858228 56.811432671417705 0.0
    vertex 7.761776438300734 58.191100032006574 114.99999999999999
    vertex 6.18856732858228 56.811432671417705 114.99999999999999
  endloop
endfacet
facet normal -0.7518398074789762 0.6593458151000705 0.0
  outer loop
    vertex 30.19110003200656 5.261776438300721 15.0
    vertex 28.811432671417688 3.6885673285822813 0.0
    vertex 28.811432671417688 3.6885673285822813 15.0
  endloop
endfacet
facet normal -0.7518398074789762 0.6593458151000705 0.0
  outer loop
    vertex 28.811432671417688 3.6885673285822813 0.0
    vertex 30.19110003200656 5.261776438300721 15.0
    vertex 30.19110003200656 5.261776438300721 0.0
  endloop
endfacet
facet normal 0.9807852804032305 0.19509032201612853 0.0
  outer loop
    vertex 1.6400731894631653 12.912001023839567 0.0
    vertex 2.04829561764613 10.85972828906384 114.99999999999999
    vertex 2.04829561764613 10.85972828906384 0.0
  endloop
endfacet
facet normal 0.9807852804032305 0.19509032201612853 0.0
  outer loop
    vertex 2.04829561764613 10.85972828906384 114.99999999999999
    vertex 1.6400731894631653 12.912001023839567 0.0
    vertex 1.6400731894631653 12.912001023839567 114.99999999999999
  endloop
endfacet
facet normal -0.9469301294951065 0.32143946530315964 0.0
  outer loop
    vertex 32.95170438235387 10.859728289063877 15.0
    vertex 32.27909900816704 8.878296751162493 0.0
    vertex 32.27909900816704 8.878296751162493 15.0
  endloop
endfacet
facet normal -0.9469301294951065 0.32143946530315964 0.0
  outer loop
    vertex 32.27909900816704 8.878296751162493 0.0
    vertex 32.95170438235387 10.859728289063877 15.0
    vertex 32.95170438235387 10.859728289063877 0.0
  endloop
endfacet
facet normal 1.0 9.275659317738058e-16 0.0
  outer loop
    vertex 1.4999999999999916 45.45089508438057 0.0
    vertex 1.5000000000000198 15.049104915619077 114.99999999999999
    vertex 1.5000000000000198 15.049104915619077 0.0
  endloop
endfacet
facet normal 1.0 9.275659317738058e-16 0.0
  outer loop
    vertex 1.5000000000000198 15.049104915619077 114.99999999999999
    vertex 1.4999999999999916 45.45089508438057 0.0
    vertex 1.4999999999999916 45.45089508438057 114.99999999999999
  endloop
endfacet
facet normal 0.8314696123025449 0.5555702330196026 0.0
  outer loop
    vertex 3.646380847589911 7.001609253105454 0.0
    vertex 4.808899967993441 5.261776438300717 114.99999999999999
    vertex 4.808899967993441 5.261776438300717 0.0
  endloop
endfacet
facet normal 0.8314696123025449 0.5555702330196026 0.0
  outer loop
    vertex 4.808899967993441 5.261776438300717 114.99999999999999
    vertex 3.646380847589911 7.001609253105454 0.0
    vertex 3.646380847589911 7.001609253105454 114.99999999999999
  endloop
endfacet
facet normal 0.6593458151000661 0.7518398074789797 0.0
  outer loop
    vertex 6.1885673285823195 3.6885673285822667 114.99999999999999
    vertex 7.7617764383007595 2.3088999679934155 0.0
    vertex 6.1885673285823195 3.6885673285822667 0.0
  endloop
endfacet
facet normal 0.6593458151000661 0.7518398074789797 0.0
  outer loop
    vertex 7.7617764383007595 2.3088999679934155 0.0
    vertex 6.1885673285823195 3.6885673285822667 114.99999999999999
    vertex 7.7617764383007595 2.3088999679934155 114.99999999999999
  endloop
endfacet
facet normal 0.9469301294951061 0.3214394653031602 0.0
  outer loop
    vertex 2.04829561764613 10.85972828906384 0.0
    vertex 2.7209009918329525 8.87829675116248 114.99999999999999
    vertex 2.7209009918329525 8.87829675116248 0.0
  endloop
endfacet
facet normal 0.9469301294951061 0.3214394653031602 0.0
  outer loop
    vertex 2.7209009918329525 8.87829675116248 114.99999999999999
    vertex 2.04829561764613 10.85972828906384 0.0
    vertex 2.04829561764613 10.85972828906384 114.99999999999999
  endloop
endfacet
facet normal -0.896872741532688 0.4422886902190017 0.0
  outer loop
    vertex 32.27909900816704 8.878296751162493 15.0
    vertex 31.353619152410094 7.0016092531054825 0.0
    vertex 31.353619152410094 7.0016092531054825 15.0
  endloop
endfacet
facet normal -0.896872741532688 0.4422886902190017 0.0
  outer loop
    vertex 31.353619152410094 7.0016092531054825 0.0
    vertex 32.27909900816704 8.878296751162493 15.0
    vertex 32.27909900816704 8.878296751162493 0.0
  endloop
endfacet
facet normal -0.9807852804032304 0.19509032201612872 0.0
  outer loop
    vertex 33.359926810536805 12.912001023839482 15.0
    vertex 32.95170438235387 10.859728289063877 0.0
    vertex 32.95170438235387 10.859728289063877 15.0
  endloop
endfacet
facet normal -0.9807852804032304 0.19509032201612872 0.0
  outer loop
    vertex 32.95170438235387 10.859728289063877 0.0
    vertex 33.359926810536805 12.912001023839482 15.0
    vertex 33.359926810536805 12.912001023839482 0.0
  endloop
endfacet
facet normal -0.9978589232386034 -0.06540312923014723 -0.0
  outer loop
    vertex 33.359926810536805 47.58799897616053 15.0
    vertex 33.49999999999997 45.45089508438092 0.0
    vertex 33.49999999999997 45.45089508438092 15.0
  endloop
endfacet
facet normal -0.9978589232386034 -0.06540312923014723 -0.0
  outer loop
    vertex 33.49999999999997 45.45089508438092 0.0
    vertex 33.359926810536805 47.58799897616053 15.0
    vertex 33.359926810536805 47.58799897616053 0.0
  endloop
endfacet
facet normal -0.89687274153269 -0.4422886902189981 -0.0
  outer loop
    vertex 31.353619152410104 53.498390746894515 15.0
    vertex 32.279099008167016 51.621703248837576 0.0
    vertex 32.279099008167016 51.621703248837576 15.0
  endloop
endfacet
facet normal -0.89687274153269 -0.4422886902189981 -0.0
  outer loop
    vertex 32.279099008167016 51.621703248837576 0.0
    vertex 31.353619152410104 53.498390746894515 15.0
    vertex 31.353619152410104 53.498390746894515 0.0
  endloop
endfacet
facet normal -0.8314696123025428 -0.5555702330196058 -0.0
  outer loop
    vertex 30.19110003200654 55.23822356169931 15.0
    vertex 31.353619152410104 53.498390746894515 0.0
    vertex 31.353619152410104 53.498390746894515 15.0
  endloop
endfacet
facet normal -0.8314696123025428 -0.5555702330196058 -0.0
  outer loop
    vertex 31.353619152410104 53.498390746894515 0.0
    vertex 30.19110003200654 55.23822356169931 15.0
    vertex 30.19110003200654 55.23822356169931 0.0
  endloop
endfacet
facet normal -0.9807852804032308 -0.1950903220161265 -0.0
  outer loop
    vertex 32.95170438235387 49.640271710936126 15.0
    vertex 33.359926810536805 47.58799897616053 0.0
    vertex 33.359926810536805 47.58799897616053 15.0
  endloop
endfacet
facet normal -0.9807852804032308 -0.1950903220161265 -0.0
  outer loop
    vertex 33.359926810536805 47.58799897616053 0.0
    vertex 32.95170438235387 49.640271710936126 15.0
    vertex 32.95170438235387 49.640271710936126 0.0
  endloop
endfacet
facet normal -0.946930129495105 -0.32143946530316364 -0.0
  outer loop
    vertex 32.279099008167016 51.621703248837576 15.0
    vertex 32.95170438235387 49.640271710936126 0.0
    vertex 32.95170438235387 49.640271710936126 15.0
  endloop
endfacet
facet normal -0.946930129495105 -0.32143946530316364 -0.0
  outer loop
    vertex 32.95170438235387 49.640271710936126 0.0
    vertex 32.279099008167016 51.621703248837576 15.0
    vertex 32.279099008167016 51.621703248837576 0.0
  endloop
endfacet
facet normal -0.6593458151000697 -0.7518398074789766 -0.0
  outer loop
    vertex 28.8114326714177 56.81143267141771 15.0
    vertex 27.238223561699257 58.191100032006574 0.0
    vertex 28.8114326714177 56.81143267141771 0.0
  endloop
endfacet
facet normal -0.6593458151000697 -0.7518398074789766 -0.0
  outer loop
    vertex 27.238223561699257 58.191100032006574 0.0
    vertex 28.8114326714177 56.81143267141771 15.0
    vertex 27.238223561699257 58.191100032006574 15.0
  endloop
endfacet
facet normal -0.7518398074789762 -0.6593458151000703 -0.0
  outer loop
    vertex 28.8114326714177 56.81143267141771 15.0
    vertex 30.19110003200654 55.23822356169931 0.0
    vertex 30.19110003200654 55.23822356169931 15.0
  endloop
endfacet
facet normal -0.7518398074789762 -0.6593458151000703 -0.0
  outer loop
    vertex 30.19110003200654 55.23822356169931 0.0
    vertex 28.8114326714177 56.81143267141771 15.0
    vertex 28.8114326714177 56.81143267141771 0.0
  endloop
endfacet
facet normal -0.5555702330196041 -0.8314696123025441 -0.0
  outer loop
    vertex 27.238223561699257 58.191100032006574 15.0
    vertex 25.498390746894557 59.35361915241009 0.0
    vertex 27.238223561699257 58.191100032006574 0.0
  endloop
endfacet
facet normal -0.5555702330196041 -0.8314696123025441 -0.0
  outer loop
    vertex 25.498390746894557 59.35361915241009 0.0
    vertex 27.238223561699257 58.191100032006574 15.0
    vertex 25.498390746894557 59.35361915241009 15.0
  endloop
endfacet
facet normal 0.0 0.0 1.0
  outer loop
    vertex 26.249999999999986 -0.15544456622768477 15.0
    vertex 9.205020025411002 1.3445554337723262 15.0
    vertex 9.205020025411 -0.15544456622767397 15.0
  endloop
endfacet
facet normal 0.0 0.0 1.0
  outer loop
    vertex 9.205020025411002 1.3445554337723262 15.0
    vertex 26.249999999999986 -0.15544456622768477 15.0
    vertex 25.794979974588973 1.3445554337723142 15.0
  endloop
endfacet
facet normal 0.0 0.0 1.0
  outer loop
    vertex 25.794979974588973 1.3445554337723142 15.0
    vertex 26.249999999999986 -0.15544456622768477 15.0
    vertex 27.238223561699257 2.3088999679934266 15.0
  endloop
endfacet
facet normal 0.0 0.0 1.0
  outer loop
    vertex 27.238223561699257 2.3088999679934266 15.0
    vertex 26.249999999999986 -0.15544456622768477 15.0
    vertex 28.153325007652587 1.116316544903375 15.0
  endloop
endfacet
facet normal 0.0 0.0 1.0
  outer loop
    vertex 27.238223561699257 2.3088999679934266 15.0
    vertex 28.153325007652587 1.116316544903375 15.0
    vertex 28.811432671417688 3.6885673285822813 15.0
  endloop
endfacet
facet normal 0.0 0.0 1.0
  outer loop
    vertex 28.811432671417688 3.6885673285822813 15.0
    vertex 28.153325007652587 1.116316544903375 15.0
    vertex 29.874368670764568 2.6256313292354148 15.0
  endloop
endfacet
facet normal 0.0 0.0 1.0
  outer loop
    vertex 28.811432671417688 3.6885673285822813 15.0
    vertex 29.874368670764568 2.6256313292354148 15.0
    vertex 30.19110003200656 5.261776438300721 15.0
  endloop
endfacet
facet normal 0.0 0.0 1.0
  outer loop
    vertex 30.19110003200656 5.261776438300721 15.0
    vertex 29.874368670764568 2.6256313292354148 15.0
    vertex 31.383683455096612 4.346674992347385 15.0
  endloop
endfacet
facet normal 0.0 0.0 1.0
  outer loop
    vertex 30.19110003200656 5.261776438300721 15.0
    vertex 31.383683455096612 4.346674992347385 15.0
    vertex 31.353619152410094 7.0016092531054825 15.0
  endloop
endfacet
facet normal 0.0 0.0 1.0
  outer loop
    vertex 31.353619152410094 7.0016092531054825 15.0
    vertex 31.383683455096612 4.346674992347385 15.0
    vertex 32.27909900816704 8.878296751162493 15.0
  endloop
endfacet
facet normal 0.0 0.0 1.0
  outer loop
    vertex 32.27909900816704 8.878296751162493 15.0
    vertex 31.383683455096612 4.346674992347385 15.0
    vertex 32.655444566227665 6.249999999999991 15.0
  endloop
endfacet
facet normal 0.0 0.0 1.0
  outer loop
    vertex 32.27909900816704 8.878296751162493 15.0
    vertex 32.655444566227665 6.249999999999991 15.0
    vertex 32.95170438235387 10.859728289063877 15.0
  endloop
endfacet
facet normal 0.0 0.0 1.0
  outer loop
    vertex 32.95170438235387 10.859728289063877 15.0
    vertex 32.655444566227665 6.249999999999991 15.0
    vertex 33.66789181894752 8.303039933610918 15.0
  endloop
endfacet
facet normal 0.0 0.0 1.0
  outer loop
    vertex 32.95170438235387 10.859728289063877 15.0
    vertex 33.66789181894752 8.303039933610918 15.0
    vertex 33.359926810536805 12.912001023839482 15.0
  endloop
endfacet
facet normal 0.0 0.0 1.0
  outer loop
    vertex 33.359926810536805 12.912001023839482 15.0
    vertex 33.66789181894752 8.303039933610918 15.0
    vertex 33.49999999999999 15.049104915619518 15.0
  endloop
endfacet
facet normal 0.0 0.0 1.0
  outer loop
    vertex 33.49999999999999 15.049104915619518 15.0
    vertex 26.999999999999986 30.25 15.0
    vertex 25.499999999999975 30.250000000000217 15.0
  endloop
endfacet
facet normal 0.0 0.0 1.0
  outer loop
    vertex 26.999999999999986 30.25 15.0
    vertex 33.49999999999999 15.049104915619518 15.0
    vertex 34.99999999999999 15.0 15.0
  endloop
endfacet
facet normal 0.0 0.0 1.0
  outer loop
    vertex 34.99999999999999 15.0 15.0
    vertex 33.49999999999999 15.049104915619518 15.0
    vertex 33.66789181894752 8.303039933610918 15.0
  endloop
endfacet
facet normal 0.0 0.0 1.0
  outer loop
    vertex 34.99999999999999 15.0 15.0
    vertex 33.66789181894752 8.303039933610918 15.0
    vertex 34.40370196005869 10.470666710705872 15.0
  endloop
endfacet
facet normal 0.0 0.0 1.0
  outer loop
    vertex 34.99999999999999 15.0 15.0
    vertex 34.40370196005869 10.470666710705872 15.0
    vertex 34.85028507404168 12.71579163614908 15.0
  endloop
endfacet
facet normal -2.3244853748789227e-31 2.898558334620022e-32 1.0
  outer loop
    vertex -5.6399329650958186e-15 15.000000000000004 114.99999999999999
    vertex 0.14971492595831093 47.78420836385091 114.99999999999999
    vertex -8.459899447643717e-15 45.49999999999999 114.99999999999999
  endloop
endfacet
facet normal -2.3244853748789227e-31 2.898558334620022e-32 1.0
  outer loop
    vertex 0.14971492595831093 47.78420836385091 114.99999999999999
    vertex -5.6399329650958186e-15 15.000000000000004 114.99999999999999
    vertex 0.14971492595831093 12.715791636149103 114.99999999999999
  endloop
endfacet
facet normal -2.3244853748789227e-31 2.898558334620022e-32 1.0
  outer loop
    vertex 0.14971492595831093 47.78420836385091 114.99999999999999
    vertex 0.14971492595831093 12.715791636149103 114.99999999999999
    vertex 0.5962980399412972 10.470666710705894 114.99999999999999
  endloop
endfacet
facet normal -2.3244853748789227e-31 2.898558334620022e-32 1.0
  outer loop
    vertex 0.14971492595831093 47.78420836385091 114.99999999999999
    vertex 0.5962980399412972 10.470666710705894 114.99999999999999
    vertex 0.5962980399412972 50.029333289294115 114.99999999999999
  endloop
endfacet
facet normal -2.3244853748789227e-31 2.898558334620022e-32 1.0
  outer loop
    vertex 0.5962980399412972 50.029333289294115 114.99999999999999
    vertex 0.5962980399412972 10.470666710705894 114.99999999999999
    vertex 1.3321081810524715 8.303039933610938 114.99999999999999
  endloop
endfacet
facet normal -2.3244853748789227e-31 2.898558334620022e-32 1.0
  outer loop
    vertex 0.5962980399412972 50.029333289294115 114.99999999999999
    vertex 1.3321081810524715 8.303039933610938 114.99999999999999
    vertex 1.3321081810524744 52.196960066389074 114.99999999999999
  endloop
endfacet
facet normal -2.3244853748789227e-31 2.898558334620022e-32 1.0
  outer loop
    vertex 1.3321081810524744 52.196960066389074 114.99999999999999
    vertex 1.3321081810524715 8.303039933610938 114.99999999999999
    vertex 1.5000000000000198 15.049104915619077 114.99999999999999
  endloop
endfacet
facet normal -2.3244853748789227e-31 2.898558334620022e-32 1.0
  outer loop
    vertex 1.5000000000000198 15.049104915619077 114.99999999999999
    vertex 1.3321081810524715 8.303039933610938 114.99999999999999
    vertex 1.6400731894631653 12.912001023839567 114.99999999999999
  endloop
endfacet
facet normal -2.3244853748789227e-31 2.898558334620022e-32 1.0
  outer loop
    vertex 1.6400731894631653 12.912001023839567 114.99999999999999
    vertex 1.3321081810524715 8.303039933610938 114.99999999999999
    vertex 2.3445554337723165 6.250000000000004 114.99999999999999
  endloop
endfacet
facet normal -2.3244853748789227e-31 2.898558334620022e-32 1.0
  outer loop
    vertex 1.3321081810524744 52.196960066389074 114.99999999999999
    vertex 1.5000000000000198 15.049104915619077 114.99999999999999
    vertex 1.4999999999999916 45.45089508438057 114.99999999999999
  endloop
endfacet
facet normal -2.3244853748789227e-31 2.898558334620022e-32 1.0
  outer loop
    vertex 1.6400731894631653 12.912001023839567 114.99999999999999
    vertex 2.3445554337723165 6.250000000000004 114.99999999999999
    vertex 2.04829561764613 10.85972828906384 114.99999999999999
  endloop
endfacet
facet normal -2.3244853748789227e-31 2.898558334620022e-32 1.0
  outer loop
    vertex 2.04829561764613 10.85972828906384 114.99999999999999
    vertex 2.3445554337723165 6.250000000000004 114.99999999999999
    vertex 2.7209009918329525 8.87829675116248 114.99999999999999
  endloop
endfacet
facet normal -2.3244853748789227e-31 2.898558334620022e-32 1.0
  outer loop
    vertex 2.7209009918329525 8.87829675116248 114.99999999999999
    vertex 2.3445554337723165 6.250000000000004 114.99999999999999
    vertex 3.616316544903376 4.346674992347395 114.99999999999999
  endloop
endfacet
facet normal -2.3244853748789227e-31 2.898558334620022e-32 1.0
  outer loop
    vertex 2.7209009918329525 8.87829675116248 114.99999999999999
    vertex 3.616316544903376 4.346674992347395 114.99999999999999
    vertex 3.646380847589911 7.001609253105454 114.99999999999999
  endloop
endfacet
facet normal -2.3244853748789227e-31 2.898558334620022e-32 1.0
  outer loop
    vertex 3.646380847589911 7.001609253105454 114.99999999999999
    vertex 3.616316544903376 4.346674992347395 114.99999999999999
    vertex 5.125631329235406 2.625631329235425 114.99999999999999
  endloop
endfacet
facet normal -2.3244853748789227e-31 2.898558334620022e-32 1.0
  outer loop
    vertex 3.646380847589911 7.001609253105454 114.99999999999999
    vertex 5.125631329235406 2.625631329235425 114.99999999999999
    vertex 4.808899967993441 5.261776438300717 114.99999999999999
  endloop
endfacet
facet normal -2.3244853748789227e-31 2.898558334620022e-32 1.0
  outer loop
    vertex 4.808899967993441 5.261776438300717 114.99999999999999
    vertex 5.125631329235406 2.625631329235425 114.99999999999999
    vertex 6.1885673285823195 3.6885673285822667 114.99999999999999
  endloop
endfacet
facet normal -2.3244853748789227e-31 2.898558334620022e-32 1.0
  outer loop
    vertex 6.1885673285823195 3.6885673285822667 114.99999999999999
    vertex 5.125631329235406 2.625631329235425 114.99999999999999
    vertex 6.84667499234738 1.116316544903389 114.99999999999999
  endloop
endfacet
facet normal -2.3244853748789227e-31 2.898558334620022e-32 1.0
  outer loop
    vertex 6.1885673285823195 3.6885673285822667 114.99999999999999
    vertex 6.84667499234738 1.116316544903389 114.99999999999999
    vertex 7.7617764383007595 2.3088999679934155 114.99999999999999
  endloop
endfacet
facet normal -2.3244853748789227e-31 2.898558334620022e-32 1.0
  outer loop
    vertex 7.7617764383007595 2.3088999679934155 114.99999999999999
    vertex 6.84667499234738 1.116316544903389 114.99999999999999
    vertex 8.749999999999988 -0.15544456622767347 114.99999999999999
  endloop
endfacet
facet normal -2.3244853748789227e-31 2.898558334620022e-32 1.0
  outer loop
    vertex 7.7617764383007595 2.3088999679934155 114.99999999999999
    vertex 8.749999999999988 -0.15544456622767347 114.99999999999999
    vertex 9.205020025411002 1.3445554337723262 114.99999999999999
  endloop
endfacet
facet normal -2.3244853748789227e-31 2.898558334620022e-32 1.0
  outer loop
    vertex 9.205020025411002 1.3445554337723262 114.99999999999999
    vertex 8.749999999999988 -0.15544456622767347 114.99999999999999
    vertex 9.205020025411 -0.15544456622767397 114.99999999999999
  endloop
endfacet
facet normal -2.3244853748789227e-31 2.898558334620022e-32 1.0
  outer loop
    vertex 1.3321081810524744 52.196960066389074 114.99999999999999
    vertex 1.640073189463173 47.58799897616049 114.99999999999999
    vertex 2.344555433772319 54.25 114.99999999999999
  endloop
endfacet
facet normal -2.3244853748789227e-31 2.898558334620022e-32 1.0
  outer loop
    vertex 1.640073189463173 47.58799897616049 114.99999999999999
    vertex 1.3321081810524744 52.196960066389074 114.99999999999999
    vertex 1.4999999999999916 45.45089508438057 114.99999999999999
  endloop
endfacet
facet normal -2.3244853748789227e-31 2.898558334620022e-32 1.0
  outer loop
    vertex 2.344555433772319 54.25 114.99999999999999
    vertex 1.640073189463173 47.58799897616049 114.99999999999999
    vertex 2.0482956176461307 49.640271710936176 114.99999999999999
  endloop
endfacet
facet normal -2.3244853748789227e-31 2.898558334620022e-32 1.0
  outer loop
    vertex 2.344555433772319 54.25 114.99999999999999
    vertex 2.0482956176461307 49.640271710936176 114.99999999999999
    vertex 2.7209009918329383 51.62170324883748 114.99999999999999
  endloop
endfacet
facet normal -2.3244853748789227e-31 2.898558334620022e-32 1.0
  outer loop
    vertex 2.344555433772319 54.25 114.99999999999999
    vertex 2.7209009918329383 51.62170324883748 114.99999999999999
    vertex 3.6163165449033787 56.15332500765262 114.99999999999999
  endloop
endfacet
facet normal -2.3244853748789227e-31 2.898558334620022e-32 1.0
  outer loop
    vertex 3.6163165449033787 56.15332500765262 114.99999999999999
    vertex 2.7209009918329383 51.62170324883748 114.99999999999999
    vertex 3.6463808475899007 53.49839074689453 114.99999999999999
  endloop
endfacet
facet normal -2.3244853748789227e-31 2.898558334620022e-32 1.0
  outer loop
    vertex 3.6163165449033787 56.15332500765262 114.99999999999999
    vertex 3.6463808475899007 53.49839074689453 114.99999999999999
    vertex 5.125631329235412 57.87436867076458 114.99999999999999
  endloop
endfacet
facet normal -2.3244853748789227e-31 2.898558334620022e-32 1.0
  outer loop
    vertex 5.125631329235412 57.87436867076458 114.99999999999999
    vertex 3.6463808475899007 53.49839074689453 114.99999999999999
    vertex 4.808899967993457 55.238223561699314 114.99999999999999
  endloop
endfacet
facet normal -2.3244853748789227e-31 2.898558334620022e-32 1.0
  outer loop
    vertex 5.125631329235412 57.87436867076458 114.99999999999999
    vertex 4.808899967993457 55.238223561699314 114.99999999999999
    vertex 6.18856732858228 56.811432671417705 114.99999999999999
  endloop
endfacet
facet normal -2.3244853748789227e-31 2.898558334620022e-32 1.0
  outer loop
    vertex 5.125631329235412 57.87436867076458 114.99999999999999
    vertex 6.18856732858228 56.811432671417705 114.99999999999999
    vertex 6.8466749923473875 59.38368345509663 114.99999999999999
  endloop
endfacet
facet normal -2.3244853748789227e-31 2.898558334620022e-32 1.0
  outer loop
    vertex 6.8466749923473875 59.38368345509663 114.99999999999999
    vertex 6.18856732858228 56.811432671417705 114.99999999999999
    vertex 7.761776438300734 58.191100032006574 114.99999999999999
  endloop
endfacet
facet normal -2.3244853748789227e-31 2.898558334620022e-32 1.0
  outer loop
    vertex 6.8466749923473875 59.38368345509663 114.99999999999999
    vertex 7.761776438300734 58.191100032006574 114.99999999999999
    vertex 8.749999999999998 60.655444566227686 114.99999999999999
  endloop
endfacet
facet normal -2.3244853748789227e-31 2.898558334620022e-32 1.0
  outer loop
    vertex 8.749999999999998 60.655444566227686 114.99999999999999
    vertex 7.761776438300734 58.191100032006574 114.99999999999999
    vertex 9.205020025411002 59.15544456622767 114.99999999999999
  endloop
endfacet
facet normal -2.3244853748789227e-31 2.898558334620022e-32 1.0
  outer loop
    vertex 8.749999999999998 60.655444566227686 114.99999999999999
    vertex 9.205020025411002 59.15544456622767 114.99999999999999
    vertex 9.205020025411002 60.87983561051176 114.99999999999999
  endloop
endfacet
facet normal 1.0 -9.399888275159657e-16 2.324485374878923e-31
  outer loop
    vertex 9.205020025411002 1.3445554337723262 15.0
    vertex 9.205020025411 -0.15544456622767397 114.99999999999999
    vertex 9.205020025411 -0.15544456622767397 15.0
  endloop
endfacet
facet normal 1.0 -9.399888275159657e-16 2.324485374878923e-31
  outer loop
    vertex 9.205020025411 -0.15544456622767397 114.99999999999999
    vertex 9.205020025411002 1.3445554337723262 15.0
    vertex 9.205020025411002 1.3445554337723262 114.99999999999999
  endloop
endfacet
facet normal 1.0 0.0 2.3244853748789227e-31
  outer loop
    vertex 9.205020025411002 60.87983561051176 15.0
    vertex 9.205020025411002 59.15544456622767 114.99999999999999
    vertex 9.205020025411002 59.15544456622767 15.0
  endloop
endfacet
facet normal 1.0 0.0 2.3244853748789227e-31
  outer loop
    vertex 9.205020025411002 59.15544456622767 114.99999999999999
    vertex 9.205020025411002 60.87983561051176 15.0
    vertex 9.205020025411002 60.87983561051176 114.99999999999999
  endloop
endfacet
facet normal -1.0 -9.245791746058684e-17 -0.0
  outer loop
    vertex -8.459899447643717e-15 45.49999999999999 114.99999999999999
    vertex -5.639932965095795e-15 15.000000000000004 0.0
    vertex -5.6399329650958186e-15 15.000000000000004 114.99999999999999
  endloop
endfacet
facet normal -1.0 -9.245791746058684e-17 -0.0
  outer loop
    vertex -5.639932965095795e-15 15.000000000000004 0.0
    vertex -8.459899447643717e-15 45.49999999999999 114.99999999999999
    vertex -8.459899447643692e-15 45.49999999999999 0.0
  endloop
endfacet
facet normal -0.6593458151000697 0.7518398074789766 0.0
  outer loop
    vertex 5.125631329235412 57.87436867076458 114.99999999999999
    vertex 6.8466749923473875 59.38368345509663 0.0
    vertex 5.125631329235412 57.87436867076458 0.0
  endloop
endfacet
facet normal -0.6593458151000697 0.7518398074789766 0.0
  outer loop
    vertex 6.8466749923473875 59.38368345509663 0.0
    vertex 5.125631329235412 57.87436867076458 114.99999999999999
    vertex 6.8466749923473875 59.38368345509663 114.99999999999999
  endloop
endfacet
facet normal -0.5555702330196011 0.8314696123025459 0.0
  outer loop
    vertex 6.8466749923473875 59.38368345509663 114.99999999999999
    vertex 8.749999999999998 60.655444566227686 0.0
    vertex 6.8466749923473875 59.38368345509663 0.0
  endloop
endfacet
facet normal -0.5555702330196011 0.8314696123025459 0.0
  outer loop
    vertex 8.749999999999998 60.655444566227686 0.0
    vertex 6.8466749923473875 59.38368345509663 114.99999999999999
    vertex 8.749999999999998 60.655444566227686 114.99999999999999
  endloop
endfacet
facet normal -0.44228869021899914 0.8968727415326895 4.1215168149667824e-17
  outer loop
    vertex 8.749999999999998 60.655444566227686 0.0
    vertex 9.205020025411002 60.87983561051176 15.0
    vertex 10.803039933610929 61.66789181894752 0.0
  endloop
endfacet
facet normal -0.44228869021899914 0.8968727415326895 4.1215168149667824e-17
  outer loop
    vertex 9.205020025411002 60.87983561051176 15.0
    vertex 8.749999999999998 60.655444566227686 0.0
    vertex 8.749999999999998 60.655444566227686 114.99999999999999
  endloop
endfacet
facet normal -0.44228869021899914 0.8968727415326895 4.1215168149667824e-17
  outer loop
    vertex 9.205020025411002 60.87983561051176 15.0
    vertex 8.749999999999998 60.655444566227686 114.99999999999999
    vertex 9.205020025411002 60.87983561051176 114.99999999999999
  endloop
endfacet
facet normal -0.44228869021899914 0.8968727415326895 4.1215168149667824e-17
  outer loop
    vertex 10.803039933610929 61.66789181894752 15.0
    vertex 10.803039933610929 61.66789181894752 0.0
    vertex 9.205020025411002 60.87983561051176 15.0
  endloop
endfacet
facet normal -0.9978589232386036 0.06540312923014356 0.0
  outer loop
    vertex 0.14971492595831093 47.78420836385091 114.99999999999999
    vertex -8.459899447643692e-15 45.49999999999999 0.0
    vertex -8.459899447643717e-15 45.49999999999999 114.99999999999999
  endloop
endfacet
facet normal -0.9978589232386036 0.06540312923014356 0.0
  outer loop
    vertex -8.459899447643692e-15 45.49999999999999 0.0
    vertex 0.14971492595831093 47.78420836385091 114.99999999999999
    vertex 0.14971492595831093 47.78420836385091 0.0
  endloop
endfacet
facet normal -0.9469301294951056 0.3214394653031619 0.0
  outer loop
    vertex 1.3321081810524744 52.196960066389074 114.99999999999999
    vertex 0.5962980399412972 50.029333289294115 0.0
    vertex 0.5962980399412972 50.029333289294115 114.99999999999999
  endloop
endfacet
facet normal -0.9469301294951056 0.3214394653031619 0.0
  outer loop
    vertex 0.5962980399412972 50.029333289294115 0.0
    vertex 1.3321081810524744 52.196960066389074 114.99999999999999
    vertex 1.3321081810524744 52.196960066389074 0.0
  endloop
endfacet
facet normal -0.9807852804032307 0.19509032201612794 0.0
  outer loop
    vertex 0.5962980399412972 50.029333289294115 114.99999999999999
    vertex 0.14971492595831093 47.78420836385091 0.0
    vertex 0.14971492595831093 47.78420836385091 114.99999999999999
  endloop
endfacet
facet normal -0.9807852804032307 0.19509032201612794 0.0
  outer loop
    vertex 0.14971492595831093 47.78420836385091 0.0
    vertex 0.5962980399412972 50.029333289294115 114.99999999999999
    vertex 0.5962980399412972 50.029333289294115 0.0
  endloop
endfacet
facet normal -0.896872741532688 0.44228869021900213 0.0
  outer loop
    vertex 2.344555433772319 54.25 114.99999999999999
    vertex 1.3321081810524744 52.196960066389074 0.0
    vertex 1.3321081810524744 52.196960066389074 114.99999999999999
  endloop
endfacet
facet normal -0.896872741532688 0.44228869021900213 0.0
  outer loop
    vertex 1.3321081810524744 52.196960066389074 0.0
    vertex 2.344555433772319 54.25 114.99999999999999
    vertex 2.344555433772319 54.25 0.0
  endloop
endfacet
facet normal -0.8314696123025458 0.5555702330196014 0.0
  outer loop
    vertex 3.6163165449033787 56.15332500765262 114.99999999999999
    vertex 2.344555433772319 54.25 0.0
    vertex 2.344555433772319 54.25 114.99999999999999
  endloop
endfacet
facet normal -0.8314696123025458 0.5555702330196014 0.0
  outer loop
    vertex 2.344555433772319 54.25 0.0
    vertex 3.6163165449033787 56.15332500765262 114.99999999999999
    vertex 3.6163165449033787 56.15332500765262 0.0
  endloop
endfacet
facet normal -0.7518398074789774 0.6593458151000688 0.0
  outer loop
    vertex 5.125631329235412 57.87436867076458 114.99999999999999
    vertex 3.6163165449033787 56.15332500765262 0.0
    vertex 3.6163165449033787 56.15332500765262 114.99999999999999
  endloop
endfacet
facet normal -0.7518398074789774 0.6593458151000688 0.0
  outer loop
    vertex 3.6163165449033787 56.15332500765262 0.0
    vertex 5.125631329235412 57.87436867076458 114.99999999999999
    vertex 5.125631329235412 57.87436867076458 0.0
  endloop
endfacet
facet normal -6.415579922273117e-16 -1.0 -3.699099381226472e-18
  outer loop
    vertex 26.249999999999986 -0.15544456622768477 15.0
    vertex 8.749999999999988 -0.15544456622767347 0.0
    vertex 26.249999999999986 -0.15544456622768477 0.0
  endloop
endfacet
facet normal -6.415579922273117e-16 -1.0 -3.699099381226472e-18
  outer loop
    vertex 8.749999999999988 -0.15544456622767347 0.0
    vertex 26.249999999999986 -0.15544456622768477 15.0
    vertex 9.205020025411 -0.15544456622767397 15.0
  endloop
endfacet
facet normal -6.415579922273117e-16 -1.0 -3.699099381226472e-18
  outer loop
    vertex 8.749999999999988 -0.15544456622767347 0.0
    vertex 9.205020025411 -0.15544456622767397 15.0
    vertex 8.749999999999988 -0.15544456622767347 114.99999999999999
  endloop
endfacet
facet normal -6.415579922273117e-16 -1.0 -3.699099381226472e-18
  outer loop
    vertex 8.749999999999988 -0.15544456622767347 114.99999999999999
    vertex 9.205020025411 -0.15544456622767397 15.0
    vertex 9.205020025411 -0.15544456622767397 114.99999999999999
  endloop
endfacet
facet normal 0.8855472253378006 0.4645493641116332 0.0
  outer loop
    vertex 26.999999999999986 30.25 0.0
    vertex 34.99999999999999 15.0 15.0
    vertex 34.99999999999999 15.0 0.0
  endloop
endfacet
facet normal 0.8855472253378006 0.4645493641116332 0.0
  outer loop
    vertex 34.99999999999999 15.0 15.0
    vertex 26.999999999999986 30.25 0.0
    vertex 26.999999999999986 30.25 15.0
  endloop
endfacet
facet normal -0.8849295253517023 -0.4657249565578496 0.0
  outer loop
    vertex 25.499999999999975 30.250000000000217 15.0
    vertex 33.49999999999999 15.049104915619518 0.0
    vertex 33.49999999999999 15.049104915619518 15.0
  endloop
endfacet
facet normal -0.8849295253517023 -0.4657249565578496 0.0
  outer loop
    vertex 33.49999999999999 15.049104915619518 0.0
    vertex 25.499999999999975 30.250000000000217 15.0
    vertex 25.499999999999975 30.250000000000217 0.0
  endloop
endfacet
facet normal 1.4287830178242599e-13 1.0 0.0
  outer loop
    vertex 25.499999999999975 30.250000000000217 15.0
    vertex 26.999999999999986 30.25 0.0
    vertex 25.499999999999975 30.250000000000217 0.0
  endloop
endfacet
facet normal 1.4287830178242599e-13 1.0 0.0
  outer loop
    vertex 26.999999999999986 30.25 0.0
    vertex 25.499999999999975 30.250000000000217 15.0
    vertex 26.999999999999986 30.25 15.0
  endloop
endfacet
facet normal 0.0 0.0 1.0
  outer loop
    vertex 34.99999999999999 25.692360137733083 15.0
    vertex 30.49999999999998 27.69236013773308 15.0
    vertex 30.49999999999998 25.692360137733083 15.0
  endloop
endfacet
facet normal 0.0 0.0 1.0
  outer loop
    vertex 30.49999999999998 27.69236013773308 15.0
    vertex 34.99999999999999 25.692360137733083 15.0
    vertex 33.499999999999986 27.69236013773308 15.0
  endloop
endfacet
facet normal 0.0 0.0 1.0
  outer loop
    vertex 33.499999999999986 27.69236013773308 15.0
    vertex 34.99999999999999 25.692360137733083 15.0
    vertex 33.66789181894752 52.196960066389074 15.0
  endloop
endfacet
facet normal 0.0 0.0 1.0
  outer loop
    vertex 33.66789181894752 52.196960066389074 15.0
    vertex 34.99999999999999 25.692360137733083 15.0
    vertex 34.40370196005869 50.029333289294115 15.0
  endloop
endfacet
facet normal 0.0 0.0 1.0
  outer loop
    vertex 34.40370196005869 50.029333289294115 15.0
    vertex 34.99999999999999 25.692360137733083 15.0
    vertex 34.85028507404168 47.7842083638509 15.0
  endloop
endfacet
facet normal 0.0 0.0 1.0
  outer loop
    vertex 34.85028507404168 47.7842083638509 15.0
    vertex 34.99999999999999 25.692360137733083 15.0
    vertex 35.0 45.49999999999999 15.0
  endloop
endfacet
facet normal 0.0 0.0 1.0
  outer loop
    vertex 9.501609253105483 59.35361915241011 15.0
    vertex 9.205020025411002 60.87983561051176 15.0
    vertex 9.205020025411002 59.15544456622767 15.0
  endloop
endfacet
facet normal 0.0 0.0 1.0
  outer loop
    vertex 9.205020025411002 60.87983561051176 15.0
    vertex 9.501609253105483 59.35361915241011 15.0
    vertex 10.803039933610929 61.66789181894752 15.0
  endloop
endfacet
facet normal 0.0 0.0 1.0
  outer loop
    vertex 10.803039933610929 61.66789181894752 15.0
    vertex 9.501609253105483 59.35361915241011 15.0
    vertex 11.3782967511625 60.27909900816705 15.0
  endloop
endfacet
facet normal 0.0 0.0 1.0
  outer loop
    vertex 10.803039933610929 61.66789181894752 15.0
    vertex 11.3782967511625 60.27909900816705 15.0
    vertex 12.970666710705885 62.4037019600587 15.0
  endloop
endfacet
facet normal 0.0 0.0 1.0
  outer loop
    vertex 12.970666710705885 62.4037019600587 15.0
    vertex 11.3782967511625 60.27909900816705 15.0
    vertex 13.359728289063892 60.951704382353874 15.0
  endloop
endfacet
facet normal 0.0 0.0 1.0
  outer loop
    vertex 12.970666710705885 62.4037019600587 15.0
    vertex 13.359728289063892 60.951704382353874 15.0
    vertex 15.215791636149097 62.85028507404168 15.0
  endloop
endfacet
facet normal 0.0 0.0 1.0
  outer loop
    vertex 15.215791636149097 62.85028507404168 15.0
    vertex 13.359728289063892 60.951704382353874 15.0
    vertex 15.412001023839474 61.35992681053681 15.0
  endloop
endfacet
facet normal 0.0 0.0 1.0
  outer loop
    vertex 15.215791636149097 62.85028507404168 15.0
    vertex 15.412001023839474 61.35992681053681 15.0
    vertex 17.499999999999996 63.0 15.0
  endloop
endfacet
facet normal 0.0 0.0 1.0
  outer loop
    vertex 17.499999999999996 63.0 15.0
    vertex 15.412001023839474 61.35992681053681 15.0
    vertex 17.499999999999986 61.49678149378904 15.0
  endloop
endfacet
facet normal 0.0 0.0 1.0
  outer loop
    vertex 17.499999999999996 63.0 15.0
    vertex 17.499999999999986 61.49678149378904 15.0
    vertex 19.587998976160524 61.35992681053681 15.0
  endloop
endfacet
facet normal 0.0 0.0 1.0
  outer loop
    vertex 17.499999999999996 63.0 15.0
    vertex 19.587998976160524 61.35992681053681 15.0
    vertex 19.7842083638509 62.85028507404168 15.0
  endloop
endfacet
facet normal 0.0 0.0 1.0
  outer loop
    vertex 19.7842083638509 62.85028507404168 15.0
    vertex 19.587998976160524 61.35992681053681 15.0
    vertex 21.640271710936176 60.95170438235387 15.0
  endloop
endfacet
facet normal 0.0 0.0 1.0
  outer loop
    vertex 19.7842083638509 62.85028507404168 15.0
    vertex 21.640271710936176 60.95170438235387 15.0
    vertex 22.029333289294115 62.4037019600587 15.0
  endloop
endfacet
facet normal 0.0 0.0 1.0
  outer loop
    vertex 22.029333289294115 62.4037019600587 15.0
    vertex 21.640271710936176 60.95170438235387 15.0
    vertex 23.621703248837534 60.27909900816703 15.0
  endloop
endfacet
facet normal 0.0 0.0 1.0
  outer loop
    vertex 22.029333289294115 62.4037019600587 15.0
    vertex 23.621703248837534 60.27909900816703 15.0
    vertex 24.19696006638907 61.66789181894752 15.0
  endloop
endfacet
facet normal 0.0 0.0 1.0
  outer loop
    vertex 24.19696006638907 61.66789181894752 15.0
    vertex 23.621703248837534 60.27909900816703 15.0
    vertex 25.498390746894557 59.35361915241009 15.0
  endloop
endfacet
facet normal 0.0 0.0 1.0
  outer loop
    vertex 24.19696006638907 61.66789181894752 15.0
    vertex 25.498390746894557 59.35361915241009 15.0
    vertex 26.249999999999996 60.655444566227686 15.0
  endloop
endfacet
facet normal 0.0 0.0 1.0
  outer loop
    vertex 26.249999999999996 60.655444566227686 15.0
    vertex 25.498390746894557 59.35361915241009 15.0
    vertex 27.238223561699257 58.191100032006574 15.0
  endloop
endfacet
facet normal 0.0 0.0 1.0
  outer loop
    vertex 26.249999999999996 60.655444566227686 15.0
    vertex 27.238223561699257 58.191100032006574 15.0
    vertex 28.15332500765261 59.383683455096616 15.0
  endloop
endfacet
facet normal 0.0 0.0 1.0
  outer loop
    vertex 28.15332500765261 59.383683455096616 15.0
    vertex 27.238223561699257 58.191100032006574 15.0
    vertex 28.8114326714177 56.81143267141771 15.0
  endloop
endfacet
facet normal 0.0 0.0 1.0
  outer loop
    vertex 28.15332500765261 59.383683455096616 15.0
    vertex 28.8114326714177 56.81143267141771 15.0
    vertex 29.874368670764582 57.87436867076458 15.0
  endloop
endfacet
facet normal 0.0 0.0 1.0
  outer loop
    vertex 29.874368670764582 57.87436867076458 15.0
    vertex 28.8114326714177 56.81143267141771 15.0
    vertex 30.19110003200654 55.23822356169931 15.0
  endloop
endfacet
facet normal 0.0 0.0 1.0
  outer loop
    vertex 29.874368670764582 57.87436867076458 15.0
    vertex 30.19110003200654 55.23822356169931 15.0
    vertex 31.383683455096612 56.15332500765262 15.0
  endloop
endfacet
facet normal 0.0 0.0 1.0
  outer loop
    vertex 31.383683455096612 56.15332500765262 15.0
    vertex 30.19110003200654 55.23822356169931 15.0
    vertex 31.353619152410104 53.498390746894515 15.0
  endloop
endfacet
facet normal 0.0 0.0 1.0
  outer loop
    vertex 31.383683455096612 56.15332500765262 15.0
    vertex 31.353619152410104 53.498390746894515 15.0
    vertex 32.279099008167016 51.621703248837576 15.0
  endloop
endfacet
facet normal 0.0 0.0 1.0
  outer loop
    vertex 31.383683455096612 56.15332500765262 15.0
    vertex 32.279099008167016 51.621703248837576 15.0
    vertex 32.65544456622768 54.25 15.0
  endloop
endfacet
facet normal 0.0 0.0 1.0
  outer loop
    vertex 32.65544456622768 54.25 15.0
    vertex 32.279099008167016 51.621703248837576 15.0
    vertex 32.95170438235387 49.640271710936126 15.0
  endloop
endfacet
facet normal 0.0 0.0 1.0
  outer loop
    vertex 32.65544456622768 54.25 15.0
    vertex 32.95170438235387 49.640271710936126 15.0
    vertex 33.66789181894752 52.196960066389074 15.0
  endloop
endfacet
facet normal 0.0 0.0 1.0
  outer loop
    vertex 33.66789181894752 52.196960066389074 15.0
    vertex 32.95170438235387 49.640271710936126 15.0
    vertex 33.359926810536805 47.58799897616053 15.0
  endloop
endfacet
facet normal 0.0 0.0 1.0
  outer loop
    vertex 33.66789181894752 52.196960066389074 15.0
    vertex 33.359926810536805 47.58799897616053 15.0
    vertex 33.49999999999997 45.45089508438092 15.0
  endloop
endfacet
facet normal 0.0 0.0 1.0
  outer loop
    vertex 33.66789181894752 52.196960066389074 15.0
    vertex 33.49999999999997 45.45089508438092 15.0
    vertex 33.499999999999986 27.69236013773308 15.0
  endloop
endfacet
facet normal 0.0 -1.0 0.0
  outer loop
    vertex 34.99999999999999 25.692360137733083 15.0
    vertex 30.49999999999998 25.692360137733083 1.4099832412739487e-15
    vertex 34.99999999999999 25.692360137733083 1.4099832412739487e-15
  endloop
endfacet
facet normal 0.0 -1.0 0.0
  outer loop
    vertex 30.49999999999998 25.692360137733083 1.4099832412739487e-15
    vertex 34.99999999999999 25.692360137733083 15.0
    vertex 30.49999999999998 25.692360137733083 15.0
  endloop
endfacet
facet normal 3.029047825244746e-18 -1.7750943542106377e-19 -1.0
  outer loop
    vertex 1.3321081810524744 52.196960066389074 0.0
    vertex 1.640073189463173 47.58799897616049 0.0
    vertex 1.4999999999999916 45.45089508438057 0.0
  endloop
endfacet
facet normal 3.029047825244746e-18 -1.7750943542106377e-19 -1.0
  outer loop
    vertex 1.640073189463173 47.58799897616049 0.0
    vertex 1.3321081810524744 52.196960066389074 0.0
    vertex 2.344555433772319 54.25 0.0
  endloop
endfacet
facet normal 3.029047825244746e-18 -1.7750943542106377e-19 -1.0
  outer loop
    vertex 1.640073189463173 47.58799897616049 0.0
    vertex 2.344555433772319 54.25 0.0
    vertex 2.0482956176461307 49.640271710936176 0.0
  endloop
endfacet
facet normal 3.029047825244746e-18 -1.7750943542106377e-19 -1.0
  outer loop
    vertex 2.0482956176461307 49.640271710936176 0.0
    vertex 2.344555433772319 54.25 0.0
    vertex 2.7209009918329383 51.62170324883748 0.0
  endloop
endfacet
facet normal 3.029047825244746e-18 -1.7750943542106377e-19 -1.0
  outer loop
    vertex 2.7209009918329383 51.62170324883748 0.0
    vertex 2.344555433772319 54.25 0.0
    vertex 3.6163165449033787 56.15332500765262 0.0
  endloop
endfacet
facet normal 3.029047825244746e-18 -1.7750943542106377e-19 -1.0
  outer loop
    vertex 2.7209009918329383 51.62170324883748 0.0
    vertex 3.6163165449033787 56.15332500765262 0.0
    vertex 3.6463808475899007 53.49839074689453 0.0
  endloop
endfacet
facet normal 3.029047825244746e-18 -1.7750943542106377e-19 -1.0
  outer loop
    vertex 3.6463808475899007 53.49839074689453 0.0
    vertex 3.6163165449033787 56.15332500765262 0.0
    vertex 5.125631329235412 57.87436867076458 0.0
  endloop
endfacet
facet normal 3.029047825244746e-18 -1.7750943542106377e-19 -1.0
  outer loop
    vertex 3.6463808475899007 53.49839074689453 0.0
    vertex 5.125631329235412 57.87436867076458 0.0
    vertex 4.808899967993457 55.238223561699314 0.0
  endloop
endfacet
facet normal 3.029047825244746e-18 -1.7750943542106377e-19 -1.0
  outer loop
    vertex 4.808899967993457 55.238223561699314 0.0
    vertex 5.125631329235412 57.87436867076458 0.0
    vertex 6.18856732858228 56.811432671417705 0.0
  endloop
endfacet
facet normal 3.029047825244746e-18 -1.7750943542106377e-19 -1.0
  outer loop
    vertex 6.18856732858228 56.811432671417705 0.0
    vertex 5.125631329235412 57.87436867076458 0.0
    vertex 6.8466749923473875 59.38368345509663 0.0
  endloop
endfacet
facet normal 3.029047825244746e-18 -1.7750943542106377e-19 -1.0
  outer loop
    vertex 6.18856732858228 56.811432671417705 0.0
    vertex 6.8466749923473875 59.38368345509663 0.0
    vertex 7.761776438300734 58.191100032006574 0.0
  endloop
endfacet
facet normal 3.029047825244746e-18 -1.7750943542106377e-19 -1.0
  outer loop
    vertex 7.761776438300734 58.191100032006574 0.0
    vertex 6.8466749923473875 59.38368345509663 0.0
    vertex 8.749999999999998 60.655444566227686 0.0
  endloop
endfacet
facet normal 3.029047825244746e-18 -1.7750943542106377e-19 -1.0
  outer loop
    vertex 7.761776438300734 58.191100032006574 0.0
    vertex 8.749999999999998 60.655444566227686 0.0
    vertex 9.501609253105483 59.35361915241011 0.0
  endloop
endfacet
facet normal 3.029047825244746e-18 -1.7750943542106377e-19 -1.0
  outer loop
    vertex 9.501609253105483 59.35361915241011 0.0
    vertex 8.749999999999998 60.655444566227686 0.0
    vertex 10.803039933610929 61.66789181894752 0.0
  endloop
endfacet
facet normal 3.029047825244746e-18 -1.7750943542106377e-19 -1.0
  outer loop
    vertex 9.501609253105483 59.35361915241011 0.0
    vertex 10.803039933610929 61.66789181894752 0.0
    vertex 11.3782967511625 60.27909900816705 0.0
  endloop
endfacet
facet normal 3.029047825244746e-18 -1.7750943542106377e-19 -1.0
  outer loop
    vertex 11.3782967511625 60.27909900816705 0.0
    vertex 10.803039933610929 61.66789181894752 0.0
    vertex 12.970666710705885 62.4037019600587 0.0
  endloop
endfacet
facet normal 3.029047825244746e-18 -1.7750943542106377e-19 -1.0
  outer loop
    vertex 11.3782967511625 60.27909900816705 0.0
    vertex 12.970666710705885 62.4037019600587 0.0
    vertex 13.359728289063892 60.951704382353874 0.0
  endloop
endfacet
facet normal 3.029047825244746e-18 -1.7750943542106377e-19 -1.0
  outer loop
    vertex 13.359728289063892 60.951704382353874 0.0
    vertex 12.970666710705885 62.4037019600587 0.0
    vertex 15.215791636149097 62.85028507404168 0.0
  endloop
endfacet
facet normal 3.029047825244746e-18 -1.7750943542106377e-19 -1.0
  outer loop
    vertex 13.359728289063892 60.951704382353874 0.0
    vertex 15.215791636149097 62.85028507404168 0.0
    vertex 15.412001023839474 61.35992681053681 0.0
  endloop
endfacet
facet normal 3.029047825244746e-18 -1.7750943542106377e-19 -1.0
  outer loop
    vertex 15.412001023839474 61.35992681053681 0.0
    vertex 15.215791636149097 62.85028507404168 0.0
    vertex 17.499999999999996 63.0 0.0
  endloop
endfacet
facet normal 3.029047825244746e-18 -1.7750943542106377e-19 -1.0
  outer loop
    vertex 15.412001023839474 61.35992681053681 0.0
    vertex 17.499999999999996 63.0 0.0
    vertex 17.499999999999986 61.49678149378904 0.0
  endloop
endfacet
facet normal 3.029047825244746e-18 -1.7750943542106377e-19 -1.0
  outer loop
    vertex 17.499999999999986 61.49678149378904 0.0
    vertex 17.499999999999996 63.0 0.0
    vertex 19.587998976160524 61.35992681053681 0.0
  endloop
endfacet
facet normal 3.029047825244746e-18 -1.7750943542106377e-19 -1.0
  outer loop
    vertex 19.587998976160524 61.35992681053681 0.0
    vertex 17.499999999999996 63.0 0.0
    vertex 19.7842083638509 62.85028507404168 0.0
  endloop
endfacet
facet normal 3.029047825244746e-18 -1.7750943542106377e-19 -1.0
  outer loop
    vertex 19.587998976160524 61.35992681053681 0.0
    vertex 19.7842083638509 62.85028507404168 0.0
    vertex 21.640271710936176 60.95170438235387 0.0
  endloop
endfacet
facet normal 3.029047825244746e-18 -1.7750943542106377e-19 -1.0
  outer loop
    vertex 21.640271710936176 60.95170438235387 0.0
    vertex 19.7842083638509 62.85028507404168 0.0
    vertex 22.029333289294115 62.4037019600587 0.0
  endloop
endfacet
facet normal 3.029047825244746e-18 -1.7750943542106377e-19 -1.0
  outer loop
    vertex 21.640271710936176 60.95170438235387 0.0
    vertex 22.029333289294115 62.4037019600587 0.0
    vertex 23.621703248837534 60.27909900816703 0.0
  endloop
endfacet
facet normal 3.029047825244746e-18 -1.7750943542106377e-19 -1.0
  outer loop
    vertex 23.621703248837534 60.27909900816703 0.0
    vertex 22.029333289294115 62.4037019600587 0.0
    vertex 24.19696006638907 61.66789181894752 0.0
  endloop
endfacet
facet normal 3.029047825244746e-18 -1.7750943542106377e-19 -1.0
  outer loop
    vertex 23.621703248837534 60.27909900816703 0.0
    vertex 24.19696006638907 61.66789181894752 0.0
    vertex 25.498390746894557 59.35361915241009 0.0
  endloop
endfacet
facet normal 3.029047825244746e-18 -1.7750943542106377e-19 -1.0
  outer loop
    vertex 25.498390746894557 59.35361915241009 0.0
    vertex 24.19696006638907 61.66789181894752 0.0
    vertex 26.249999999999996 60.655444566227686 0.0
  endloop
endfacet
facet normal 3.029047825244746e-18 -1.7750943542106377e-19 -1.0
  outer loop
    vertex 25.498390746894557 59.35361915241009 0.0
    vertex 26.249999999999996 60.655444566227686 0.0
    vertex 27.238223561699257 58.191100032006574 0.0
  endloop
endfacet
facet normal 3.029047825244746e-18 -1.7750943542106377e-19 -1.0
  outer loop
    vertex 27.238223561699257 58.191100032006574 0.0
    vertex 26.249999999999996 60.655444566227686 0.0
    vertex 28.15332500765261 59.383683455096616 0.0
  endloop
endfacet
facet normal 3.029047825244746e-18 -1.7750943542106377e-19 -1.0
  outer loop
    vertex 27.238223561699257 58.191100032006574 0.0
    vertex 28.15332500765261 59.383683455096616 0.0
    vertex 28.8114326714177 56.81143267141771 0.0
  endloop
endfacet
facet normal 3.029047825244746e-18 -1.7750943542106377e-19 -1.0
  outer loop
    vertex 28.8114326714177 56.81143267141771 0.0
    vertex 28.15332500765261 59.383683455096616 0.0
    vertex 29.874368670764582 57.87436867076458 0.0
  endloop
endfacet
facet normal 3.029047825244746e-18 -1.7750943542106377e-19 -1.0
  outer loop
    vertex 28.8114326714177 56.81143267141771 0.0
    vertex 29.874368670764582 57.87436867076458 0.0
    vertex 30.19110003200654 55.23822356169931 0.0
  endloop
endfacet
facet normal 3.029047825244746e-18 -1.7750943542106377e-19 -1.0
  outer loop
    vertex 30.19110003200654 55.23822356169931 0.0
    vertex 29.874368670764582 57.87436867076458 0.0
    vertex 31.383683455096612 56.15332500765262 0.0
  endloop
endfacet
facet normal 3.029047825244746e-18 -1.7750943542106377e-19 -1.0
  outer loop
    vertex 30.19110003200654 55.23822356169931 0.0
    vertex 31.383683455096612 56.15332500765262 0.0
    vertex 31.353619152410104 53.498390746894515 0.0
  endloop
endfacet
facet normal 3.029047825244746e-18 -1.7750943542106377e-19 -1.0
  outer loop
    vertex 31.353619152410104 53.498390746894515 0.0
    vertex 31.383683455096612 56.15332500765262 0.0
    vertex 32.279099008167016 51.621703248837576 0.0
  endloop
endfacet
facet normal 3.029047825244746e-18 -1.7750943542106377e-19 -1.0
  outer loop
    vertex 32.279099008167016 51.621703248837576 0.0
    vertex 31.383683455096612 56.15332500765262 0.0
    vertex 32.65544456622768 54.25 0.0
  endloop
endfacet
facet normal 3.029047825244746e-18 -1.7750943542106377e-19 -1.0
  outer loop
    vertex 32.279099008167016 51.621703248837576 0.0
    vertex 32.65544456622768 54.25 0.0
    vertex 32.95170438235387 49.640271710936126 0.0
  endloop
endfacet
facet normal 3.029047825244746e-18 -1.7750943542106377e-19 -1.0
  outer loop
    vertex 32.95170438235387 49.640271710936126 0.0
    vertex 32.65544456622768 54.25 0.0
    vertex 33.66789181894752 52.196960066389074 0.0
  endloop
endfacet
facet normal 3.029047825244746e-18 -1.7750943542106377e-19 -1.0
  outer loop
    vertex 32.95170438235387 49.640271710936126 0.0
    vertex 33.66789181894752 52.196960066389074 0.0
    vertex 33.359926810536805 47.58799897616053 0.0
  endloop
endfacet
facet normal 3.029047825244746e-18 -1.7750943542106377e-19 -1.0
  outer loop
    vertex 33.359926810536805 47.58799897616053 0.0
    vertex 33.66789181894752 52.196960066389074 0.0
    vertex 33.49999999999997 45.45089508438092 0.0
  endloop
endfacet
facet normal 3.029047825244746e-18 -1.7750943542106377e-19 -1.0
  outer loop
    vertex 33.49999999999997 45.45089508438092 0.0
    vertex 33.66789181894752 52.196960066389074 0.0
    vertex 33.499999999999986 27.69236013773308 1.3386225232307741e-15
  endloop
endfacet
facet normal 3.029047825244746e-18 -1.7750943542106377e-19 -1.0
  outer loop
    vertex 33.499999999999986 27.69236013773308 1.3386225232307741e-15
    vertex 30.49999999999998 25.692360137733083 1.4099832412739487e-15
    vertex 30.49999999999998 27.69236013773308 1.3386225232307741e-15
  endloop
endfacet
facet normal 3.029047825244746e-18 -1.7750943542106377e-19 -1.0
  outer loop
    vertex 30.49999999999998 25.692360137733083 1.4099832412739487e-15
    vertex 33.499999999999986 27.69236013773308 1.3386225232307741e-15
    vertex 34.99999999999999 25.692360137733083 1.4099832412739487e-15
  endloop
endfacet
facet normal 3.029047825244746e-18 -1.7750943542106377e-19 -1.0
  outer loop
    vertex 34.99999999999999 25.692360137733083 1.4099832412739487e-15
    vertex 33.499999999999986 27.69236013773308 1.3386225232307741e-15
    vertex 33.66789181894752 52.196960066389074 0.0
  endloop
endfacet
facet normal 3.029047825244746e-18 -1.7750943542106377e-19 -1.0
  outer loop
    vertex 34.99999999999999 25.692360137733083 1.4099832412739487e-15
    vertex 33.66789181894752 52.196960066389074 0.0
    vertex 34.40370196005869 50.029333289294115 0.0
  endloop
endfacet
facet normal 3.029047825244746e-18 -1.7750943542106377e-19 -1.0
  outer loop
    vertex 34.99999999999999 25.692360137733083 1.4099832412739487e-15
    vertex 34.40370196005869 50.029333289294115 0.0
    vertex 34.85028507404168 47.7842083638509 0.0
  endloop
endfacet
facet normal 3.029047825244746e-18 -1.7750943542106377e-19 -1.0
  outer loop
    vertex 34.99999999999999 25.692360137733083 1.4099832412739487e-15
    vertex 34.85028507404168 47.7842083638509 0.0
    vertex 35.0 45.49999999999999 0.0
  endloop
endfacet
facet normal 3.029047825244746e-18 -1.7750943542106377e-19 -1.0
  outer loop
    vertex 26.999999999999986 30.25 0.0
    vertex 33.49999999999999 15.049104915619518 0.0
    vertex 25.499999999999975 30.250000000000217 0.0
  endloop
endfacet
facet normal 3.029047825244746e-18 -1.7750943542106377e-19 -1.0
  outer loop
    vertex 33.49999999999999 15.049104915619518 0.0
    vertex 26.999999999999986 30.25 0.0
    vertex 34.99999999999999 15.0 0.0
  endloop
endfacet
facet normal 3.029047825244746e-18 -1.7750943542106377e-19 -1.0
  outer loop
    vertex 33.49999999999999 15.049104915619518 0.0
    vertex 34.99999999999999 15.0 0.0
    vertex 33.66789181894752 8.303039933610918 0.0
  endloop
endfacet
facet normal 3.029047825244746e-18 -1.7750943542106377e-19 -1.0
  outer loop
    vertex 33.66789181894752 8.303039933610918 0.0
    vertex 34.99999999999999 15.0 0.0
    vertex 34.40370196005869 10.470666710705872 0.0
  endloop
endfacet
facet normal 3.029047825244746e-18 -1.7750943542106377e-19 -1.0
  outer loop
    vertex 34.40370196005869 10.470666710705872 0.0
    vertex 34.99999999999999 15.0 0.0
    vertex 34.85028507404168 12.71579163614908 0.0
  endloop
endfacet
facet normal 3.029047825244746e-18 -1.7750943542106377e-19 -1.0
  outer loop
    vertex 0.14971492595831093 47.78420836385091 0.0
    vertex -5.639932965095795e-15 15.000000000000004 0.0
    vertex -8.459899447643692e-15 45.49999999999999 0.0
  endloop
endfacet
facet normal 3.029047825244746e-18 -1.7750943542106377e-19 -1.0
  outer loop
    vertex -5.639932965095795e-15 15.000000000000004 0.0
    vertex 0.14971492595831093 47.78420836385091 0.0
    vertex 0.14971492595831093 12.715791636149103 0.0
  endloop
endfacet
facet normal 3.029047825244746e-18 -1.7750943542106377e-19 -1.0
  outer loop
    vertex 0.14971492595831093 12.715791636149103 0.0
    vertex 0.14971492595831093 47.78420836385091 0.0
    vertex 0.5962980399412972 50.029333289294115 0.0
  endloop
endfacet
facet normal 3.029047825244746e-18 -1.7750943542106377e-19 -1.0
  outer loop
    vertex 0.14971492595831093 12.715791636149103 0.0
    vertex 0.5962980399412972 50.029333289294115 0.0
    vertex 0.5962980399412972 10.470666710705894 0.0
  endloop
endfacet
facet normal 3.029047825244746e-18 -1.7750943542106377e-19 -1.0
  outer loop
    vertex 0.5962980399412972 10.470666710705894 0.0
    vertex 0.5962980399412972 50.029333289294115 0.0
    vertex 1.3321081810524744 52.196960066389074 0.0
  endloop
endfacet
facet normal 3.029047825244746e-18 -1.7750943542106377e-19 -1.0
  outer loop
    vertex 0.5962980399412972 10.470666710705894 0.0
    vertex 1.3321081810524744 52.196960066389074 0.0
    vertex 1.3321081810524715 8.303039933610938 0.0
  endloop
endfacet
facet normal 3.029047825244746e-18 -1.7750943542106377e-19 -1.0
  outer loop
    vertex 1.3321081810524715 8.303039933610938 0.0
    vertex 1.3321081810524744 52.196960066389074 0.0
    vertex 1.5000000000000198 15.049104915619077 0.0
  endloop
endfacet
facet normal 3.029047825244746e-18 -1.7750943542106377e-19 -1.0
  outer loop
    vertex 1.3321081810524715 8.303039933610938 0.0
    vertex 1.5000000000000198 15.049104915619077 0.0
    vertex 1.6400731894631653 12.912001023839567 0.0
  endloop
endfacet
facet normal 3.029047825244746e-18 -1.7750943542106377e-19 -1.0
  outer loop
    vertex 1.3321081810524715 8.303039933610938 0.0
    vertex 1.6400731894631653 12.912001023839567 0.0
    vertex 2.3445554337723165 6.250000000000004 0.0
  endloop
endfacet
facet normal 3.029047825244746e-18 -1.7750943542106377e-19 -1.0
  outer loop
    vertex 1.5000000000000198 15.049104915619077 0.0
    vertex 1.3321081810524744 52.196960066389074 0.0
    vertex 1.4999999999999916 45.45089508438057 0.0
  endloop
endfacet
facet normal 3.029047825244746e-18 -1.7750943542106377e-19 -1.0
  outer loop
    vertex 2.3445554337723165 6.250000000000004 0.0
    vertex 1.6400731894631653 12.912001023839567 0.0
    vertex 2.04829561764613 10.85972828906384 0.0
  endloop
endfacet
facet normal 3.029047825244746e-18 -1.7750943542106377e-19 -1.0
  outer loop
    vertex 2.3445554337723165 6.250000000000004 0.0
    vertex 2.04829561764613 10.85972828906384 0.0
    vertex 2.7209009918329525 8.87829675116248 0.0
  endloop
endfacet
facet normal 3.029047825244746e-18 -1.7750943542106377e-19 -1.0
  outer loop
    vertex 2.3445554337723165 6.250000000000004 0.0
    vertex 2.7209009918329525 8.87829675116248 0.0
    vertex 3.616316544903376 4.346674992347395 0.0
  endloop
endfacet
facet normal 3.029047825244746e-18 -1.7750943542106377e-19 -1.0
  outer loop
    vertex 3.616316544903376 4.346674992347395 0.0
    vertex 2.7209009918329525 8.87829675116248 0.0
    vertex 3.646380847589911 7.001609253105454 0.0
  endloop
endfacet
facet normal 3.029047825244746e-18 -1.7750943542106377e-19 -1.0
  outer loop
    vertex 3.616316544903376 4.346674992347395 0.0
    vertex 3.646380847589911 7.001609253105454 0.0
    vertex 5.125631329235406 2.625631329235425 0.0
  endloop
endfacet
facet normal 3.029047825244746e-18 -1.7750943542106377e-19 -1.0
  outer loop
    vertex 5.125631329235406 2.625631329235425 0.0
    vertex 3.646380847589911 7.001609253105454 0.0
    vertex 4.808899967993441 5.261776438300717 0.0
  endloop
endfacet
facet normal 3.029047825244746e-18 -1.7750943542106377e-19 -1.0
  outer loop
    vertex 5.125631329235406 2.625631329235425 0.0
    vertex 4.808899967993441 5.261776438300717 0.0
    vertex 6.1885673285823195 3.6885673285822667 0.0
  endloop
endfacet
facet normal 3.029047825244746e-18 -1.7750943542106377e-19 -1.0
  outer loop
    vertex 5.125631329235406 2.625631329235425 0.0
    vertex 6.1885673285823195 3.6885673285822667 0.0
    vertex 6.84667499234738 1.116316544903389 0.0
  endloop
endfacet
facet normal 3.029047825244746e-18 -1.7750943542106377e-19 -1.0
  outer loop
    vertex 6.84667499234738 1.116316544903389 0.0
    vertex 6.1885673285823195 3.6885673285822667 0.0
    vertex 7.7617764383007595 2.3088999679934155 0.0
  endloop
endfacet
facet normal 3.029047825244746e-18 -1.7750943542106377e-19 -1.0
  outer loop
    vertex 6.84667499234738 1.116316544903389 0.0
    vertex 7.7617764383007595 2.3088999679934155 0.0
    vertex 8.749999999999988 -0.15544456622767347 0.0
  endloop
endfacet
facet normal 3.029047825244746e-18 -1.7750943542106377e-19 -1.0
  outer loop
    vertex 8.749999999999988 -0.15544456622767347 0.0
    vertex 7.7617764383007595 2.3088999679934155 0.0
    vertex 9.205020025411002 1.3445554337723262 0.0
  endloop
endfacet
facet normal 3.029047825244746e-18 -1.7750943542106377e-19 -1.0
  outer loop
    vertex 8.749999999999988 -0.15544456622767347 0.0
    vertex 9.205020025411002 1.3445554337723262 0.0
    vertex 26.249999999999986 -0.15544456622768477 0.0
  endloop
endfacet
facet normal 3.029047825244746e-18 -1.7750943542106377e-19 -1.0
  outer loop
    vertex 26.249999999999986 -0.15544456622768477 0.0
    vertex 9.205020025411002 1.3445554337723262 0.0
    vertex 25.794979974588973 1.3445554337723142 0.0
  endloop
endfacet
facet normal 3.029047825244746e-18 -1.7750943542106377e-19 -1.0
  outer loop
    vertex 26.249999999999986 -0.15544456622768477 0.0
    vertex 25.794979974588973 1.3445554337723142 0.0
    vertex 27.238223561699257 2.3088999679934266 0.0
  endloop
endfacet
facet normal 3.029047825244746e-18 -1.7750943542106377e-19 -1.0
  outer loop
    vertex 26.249999999999986 -0.15544456622768477 0.0
    vertex 27.238223561699257 2.3088999679934266 0.0
    vertex 28.153325007652587 1.116316544903375 0.0
  endloop
endfacet
facet normal 3.029047825244746e-18 -1.7750943542106377e-19 -1.0
  outer loop
    vertex 28.153325007652587 1.116316544903375 0.0
    vertex 27.238223561699257 2.3088999679934266 0.0
    vertex 28.811432671417688 3.6885673285822813 0.0
  endloop
endfacet
facet normal 3.029047825244746e-18 -1.7750943542106377e-19 -1.0
  outer loop
    vertex 28.153325007652587 1.116316544903375 0.0
    vertex 28.811432671417688 3.6885673285822813 0.0
    vertex 29.874368670764568 2.6256313292354148 0.0
  endloop
endfacet
facet normal 3.029047825244746e-18 -1.7750943542106377e-19 -1.0
  outer loop
    vertex 29.874368670764568 2.6256313292354148 0.0
    vertex 28.811432671417688 3.6885673285822813 0.0
    vertex 30.19110003200656 5.261776438300721 0.0
  endloop
endfacet
facet normal 3.029047825244746e-18 -1.7750943542106377e-19 -1.0
  outer loop
    vertex 29.874368670764568 2.6256313292354148 0.0
    vertex 30.19110003200656 5.261776438300721 0.0
    vertex 31.383683455096612 4.346674992347385 0.0
  endloop
endfacet
facet normal 3.029047825244746e-18 -1.7750943542106377e-19 -1.0
  outer loop
    vertex 31.383683455096612 4.346674992347385 0.0
    vertex 30.19110003200656 5.261776438300721 0.0
    vertex 31.353619152410094 7.0016092531054825 0.0
  endloop
endfacet
facet normal 3.029047825244746e-18 -1.7750943542106377e-19 -1.0
  outer loop
    vertex 31.383683455096612 4.346674992347385 0.0
    vertex 31.353619152410094 7.0016092531054825 0.0
    vertex 32.27909900816704 8.878296751162493 0.0
  endloop
endfacet
facet normal 3.029047825244746e-18 -1.7750943542106377e-19 -1.0
  outer loop
    vertex 31.383683455096612 4.346674992347385 0.0
    vertex 32.27909900816704 8.878296751162493 0.0
    vertex 32.655444566227665 6.249999999999991 0.0
  endloop
endfacet
facet normal 3.029047825244746e-18 -1.7750943542106377e-19 -1.0
  outer loop
    vertex 32.655444566227665 6.249999999999991 0.0
    vertex 32.27909900816704 8.878296751162493 0.0
    vertex 32.95170438235387 10.859728289063877 0.0
  endloop
endfacet
facet normal 3.029047825244746e-18 -1.7750943542106377e-19 -1.0
  outer loop
    vertex 32.655444566227665 6.249999999999991 0.0
    vertex 32.95170438235387 10.859728289063877 0.0
    vertex 33.66789181894752 8.303039933610918 0.0
  endloop
endfacet
facet normal 3.029047825244746e-18 -1.7750943542106377e-19 -1.0
  outer loop
    vertex 33.66789181894752 8.303039933610918 0.0
    vertex 32.95170438235387 10.859728289063877 0.0
    vertex 33.359926810536805 12.912001023839482 0.0
  endloop
endfacet
facet normal 3.029047825244746e-18 -1.7750943542106377e-19 -1.0
  outer loop
    vertex 33.66789181894752 8.303039933610918 0.0
    vertex 33.359926810536805 12.912001023839482 0.0
    vertex 33.49999999999999 15.049104915619518 0.0
  endloop
endfacet
facet normal -1.0 -6.351799832632486e-16 1.0067531453656125e-32
  outer loop
    vertex 33.49999999999997 45.45089508438092 15.0
    vertex 33.499999999999986 27.69236013773308 1.3386225232307741e-15
    vertex 33.499999999999986 27.69236013773308 15.0
  endloop
endfacet
facet normal -1.0 -6.351799832632486e-16 1.0067531453656125e-32
  outer loop
    vertex 33.499999999999986 27.69236013773308 1.3386225232307741e-15
    vertex 33.49999999999997 45.45089508438092 15.0
    vertex 33.49999999999997 45.45089508438092 0.0
  endloop
endfacet
facet normal -1.0 0.0 0.0
  outer loop
    vertex 30.49999999999998 27.69236013773308 15.0
    vertex 30.49999999999998 25.692360137733083 1.4099832412739487e-15
    vertex 30.49999999999998 25.692360137733083 15.0
  endloop
endfacet
facet normal -1.0 0.0 0.0
  outer loop
    vertex 30.49999999999998 25.692360137733083 1.4099832412739487e-15
    vertex 30.49999999999998 27.69236013773308 15.0
    vertex 30.49999999999998 27.69236013773308 1.3386225232307741e-15
  endloop
endfacet
facet normal 0.0 1.0 0.0
  outer loop
    vertex 30.49999999999998 27.69236013773308 15.0
    vertex 33.499999999999986 27.69236013773308 1.3386225232307741e-15
    vertex 30.49999999999998 27.69236013773308 1.3386225232307741e-15
  endloop
endfacet
facet normal 0.0 1.0 0.0
  outer loop
    vertex 33.499999999999986 27.69236013773308 1.3386225232307741e-15
    vertex 30.49999999999998 27.69236013773308 15.0
    vertex 33.499999999999986 27.69236013773308 15.0
  endloop
endfacet
endsolid Printtable-S-Series
